<svg width="134" height="50" viewBox="0 0 134 50" fill="none" xmlns="http://www.w3.org/2000/svg">
<g clip-path="url(#clip0_414_1644)">
<path d="M70.8369 48.1834C70.8497 47.7249 71.0395 47.2896 71.3659 46.9701C71.3807 46.9552 71.3924 46.9375 71.4004 46.9181C71.4084 46.8987 71.4126 46.8778 71.4126 46.8567C71.4126 46.8357 71.4084 46.8148 71.4004 46.7954C71.3924 46.7759 71.3807 46.7583 71.3659 46.7434C71.1108 46.4625 70.9662 46.0975 70.9592 45.7167C70.9592 44.6934 71.4618 44.0167 72.5859 44.0167C73.0503 44.014 73.5139 44.0542 73.9711 44.1367C74.0117 44.1451 74.0482 44.1671 74.0747 44.1993C74.1011 44.2314 74.1159 44.2717 74.1166 44.3134V45.0601C74.117 45.0856 74.1117 45.1109 74.1013 45.1341C74.0909 45.1574 74.0755 45.178 74.0562 45.1946C74.0369 45.2111 74.0143 45.2232 73.9899 45.2299C73.9654 45.2366 73.9398 45.2378 73.9149 45.2334C73.5308 45.1535 73.14 45.1111 72.7479 45.1067C72.6618 45.0958 72.5744 45.1041 72.492 45.1311C72.4095 45.1581 72.334 45.2032 72.2708 45.263C72.2076 45.3229 72.1584 45.3961 72.1265 45.4774C72.0947 45.5588 72.0811 45.6462 72.0866 45.7334C72.0866 46.0834 72.2585 46.3434 72.6255 46.3434H73.776C73.7989 46.3434 73.8215 46.348 73.8426 46.3569C73.8637 46.3658 73.8828 46.3789 73.8988 46.3953C73.9148 46.4118 73.9274 46.4313 73.9358 46.4527C73.9443 46.4741 73.9484 46.497 73.948 46.5201V47.2567C73.9484 47.2798 73.9443 47.3027 73.9358 47.3241C73.9274 47.3455 73.9148 47.365 73.8988 47.3815C73.8828 47.3979 73.8637 47.411 73.8426 47.4199C73.8215 47.4288 73.7989 47.4334 73.776 47.4334H72.642C72.5493 47.4329 72.4576 47.4521 72.3728 47.4897C72.2879 47.5273 72.2118 47.5824 72.1495 47.6516C72.0871 47.7207 72.0399 47.8024 72.0108 47.8911C71.9818 47.9798 71.9715 48.0738 71.9808 48.1667C71.9808 48.5901 72.1891 48.9067 72.7677 48.9067C73.1903 48.9065 73.6121 48.8664 74.0273 48.7867C74.0524 48.7824 74.0782 48.7836 74.1027 48.7903C74.1273 48.797 74.1501 48.809 74.1697 48.8255C74.1892 48.842 74.2049 48.8626 74.2157 48.8858C74.2265 48.9091 74.2322 48.9344 74.2323 48.9601V49.6834C74.2328 49.726 74.218 49.7673 74.1906 49.7998C74.1633 49.8322 74.1253 49.8536 74.0835 49.8601C73.5947 49.9388 73.1007 49.98 72.6057 49.9834C71.4419 49.9834 70.8468 49.2801 70.8468 48.1701" fill="black"/>
<path d="M20.1178 49.9033H19.4565C19.4257 49.9029 19.3953 49.8963 19.367 49.884C19.3387 49.8717 19.313 49.8539 19.2915 49.8316C19.27 49.8094 19.2531 49.783 19.2417 49.7541C19.2303 49.7252 19.2247 49.6944 19.2251 49.6633V44.35C19.2247 44.3189 19.2303 44.288 19.2417 44.2592C19.2531 44.2303 19.27 44.2039 19.2915 44.1816C19.313 44.1594 19.3387 44.1415 19.367 44.1293C19.3953 44.117 19.4257 44.1104 19.4565 44.11H21.837C21.8678 44.1104 21.8982 44.117 21.9265 44.1293C21.9548 44.1415 21.9805 44.1594 22.002 44.1816C22.0235 44.2039 22.0404 44.2303 22.0518 44.2592C22.0632 44.288 22.0688 44.3189 22.0684 44.35V44.9633C22.0688 44.9942 22.0631 45.0249 22.0517 45.0536C22.0403 45.0823 22.0233 45.1084 22.0018 45.1305C21.9802 45.1525 21.9546 45.17 21.9263 45.1819C21.898 45.1938 21.8676 45.2 21.837 45.2H20.5939C20.5627 45.2 20.5319 45.2062 20.5033 45.2183C20.4746 45.2304 20.4485 45.2481 20.4267 45.2705C20.4049 45.2928 20.3876 45.3193 20.376 45.3484C20.3644 45.3775 20.3587 45.4086 20.3591 45.44V46.1066C20.3587 46.138 20.3644 46.1691 20.376 46.1982C20.3876 46.2273 20.4049 46.2538 20.4267 46.2761C20.4485 46.2985 20.4746 46.3162 20.5033 46.3283C20.5319 46.3404 20.5627 46.3466 20.5939 46.3466H21.7411C21.7719 46.3466 21.8024 46.3528 21.8309 46.3647C21.8594 46.3766 21.8853 46.394 21.9071 46.416C21.9289 46.4379 21.9461 46.464 21.9579 46.4927C21.9697 46.5214 21.9758 46.5522 21.9758 46.5833V47.1966C21.9762 47.228 21.9705 47.2591 21.9589 47.2882C21.9473 47.3173 21.9301 47.3438 21.9082 47.3661C21.8864 47.3885 21.8604 47.4062 21.8317 47.4183C21.803 47.4304 21.7722 47.4366 21.7411 47.4366H20.5939C20.563 47.4366 20.5325 47.4428 20.504 47.4546C20.4755 47.4665 20.4497 47.484 20.4279 47.506C20.4061 47.5279 20.3888 47.554 20.377 47.5827C20.3652 47.6115 20.3591 47.6422 20.3591 47.6733V49.6733C20.3596 49.7047 20.3538 49.7358 20.3422 49.7649C20.3306 49.794 20.3134 49.8205 20.2915 49.8428C20.2697 49.8651 20.2437 49.8829 20.215 49.895C20.1863 49.9071 20.1555 49.9133 20.1244 49.9133" fill="black"/>
<path d="M26.4027 48.95V49.7633C26.4027 49.7998 26.3886 49.835 26.3632 49.8611C26.3379 49.8873 26.3034 49.9024 26.2672 49.9033H23.6917C23.6555 49.9024 23.621 49.8873 23.5957 49.8611C23.5703 49.835 23.5561 49.7998 23.5562 49.7633V44.2533C23.5561 44.2167 23.5703 44.1816 23.5957 44.1555C23.621 44.1293 23.6555 44.1142 23.6917 44.1133H24.5546C24.5727 44.1133 24.5906 44.1169 24.6073 44.124C24.6239 44.1311 24.639 44.1414 24.6516 44.1545C24.6643 44.1675 24.6742 44.183 24.6808 44.2C24.6874 44.2169 24.6906 44.2351 24.6902 44.2533V48.6833C24.6902 48.7195 24.7045 48.7543 24.7299 48.7799C24.7553 48.8056 24.7897 48.8199 24.8257 48.8199H26.2672C26.3034 48.8208 26.3379 48.836 26.3632 48.8621C26.3886 48.8883 26.4027 48.9234 26.4027 48.96" fill="black"/>
<path d="M29.9996 47.6833L29.5335 45.94C29.5306 45.9285 29.5239 45.9183 29.5146 45.9111C29.5054 45.9038 29.494 45.8999 29.4822 45.8999C29.4705 45.8999 29.4591 45.9038 29.4498 45.9111C29.4405 45.9183 29.4339 45.9285 29.431 45.94L28.9681 47.6833C28.965 47.6933 28.9643 47.7038 28.966 47.7141C28.9676 47.7244 28.9717 47.7342 28.9778 47.7426C28.9839 47.7511 28.9919 47.7579 29.0011 47.7627C29.0103 47.7674 29.0206 47.7699 29.0309 47.77H29.9335C29.9439 47.7698 29.9541 47.7672 29.9634 47.7625C29.9727 47.7578 29.9809 47.751 29.9872 47.7427C29.9936 47.7343 29.998 47.7247 30.0001 47.7144C30.0023 47.7041 30.0021 47.6935 29.9996 47.6833ZM28.6144 49L28.4061 49.7733C28.3952 49.8126 28.3719 49.8473 28.3397 49.872C28.3074 49.8967 28.268 49.91 28.2275 49.91H27.5134C27.4848 49.91 27.4567 49.9034 27.4311 49.8906C27.4055 49.8778 27.3832 49.8592 27.3659 49.8363C27.3486 49.8134 27.3368 49.7868 27.3314 49.7585C27.3261 49.7302 27.3273 49.701 27.3349 49.6733L28.7598 44.34C28.7767 44.2742 28.8147 44.2159 28.868 44.1743C28.9212 44.1326 28.9867 44.11 29.0541 44.11H29.9103C29.9777 44.11 30.0432 44.1326 30.0965 44.1743C30.1497 44.2159 30.1877 44.2742 30.2046 44.34L31.6295 49.6733C31.6372 49.701 31.6383 49.7302 31.633 49.7585C31.6276 49.7868 31.6158 49.8134 31.5985 49.8363C31.5812 49.8592 31.5589 49.8778 31.5333 49.8906C31.5077 49.9034 31.4796 49.91 31.451 49.91H30.7402C30.6995 49.9106 30.6599 49.8974 30.6275 49.8727C30.5952 49.8479 30.572 49.8129 30.5617 49.7733L30.3534 49C30.3432 48.96 30.3201 48.9246 30.2878 48.8993C30.2555 48.874 30.2158 48.8601 30.1748 48.86H28.7929C28.7519 48.8601 28.7122 48.874 28.6799 48.8993C28.6476 48.9246 28.6246 48.96 28.6144 49Z" fill="black"/>
<path d="M33.478 49.9033H33.0317C32.9936 49.903 32.956 49.8947 32.9212 49.879C32.8865 49.8632 32.8553 49.8404 32.8298 49.8118C32.8043 49.7833 32.785 49.7497 32.7731 49.7133C32.7612 49.6768 32.7569 49.6382 32.7606 49.6L33.2102 44.3133C33.2143 44.2593 33.2383 44.2089 33.2775 44.1719C33.3167 44.1349 33.3681 44.114 33.4218 44.1133H33.9971C34.04 44.1131 34.0819 44.1261 34.1173 44.1505C34.1528 44.1749 34.18 44.2096 34.1954 44.25L35.0352 46.41C35.0428 46.4485 35.0635 46.4831 35.0936 46.508C35.1238 46.5329 35.1615 46.5465 35.2005 46.5465C35.2394 46.5465 35.2772 46.5329 35.3073 46.508C35.3375 46.4831 35.3581 46.4485 35.3658 46.41L36.2055 44.25C36.221 44.2096 36.2482 44.1749 36.2836 44.1505C36.3191 44.1261 36.361 44.1131 36.4039 44.1133H36.9791C37.0328 44.114 37.0843 44.1349 37.1235 44.1719C37.1626 44.2089 37.1866 44.2593 37.1907 44.3133L37.6437 49.6466C37.6469 49.6807 37.6431 49.715 37.6324 49.7474C37.6218 49.7799 37.6046 49.8097 37.5819 49.8351C37.5592 49.8605 37.5315 49.8808 37.5006 49.8949C37.4697 49.9089 37.4362 49.9163 37.4023 49.9166H36.8965C36.8355 49.916 36.7769 49.8924 36.7322 49.8505C36.6876 49.8085 36.6601 49.7513 36.6552 49.69L36.3907 46.69C36.3879 46.6793 36.3816 46.6699 36.373 46.6631C36.3643 46.6564 36.3537 46.6528 36.3427 46.6528C36.3318 46.6528 36.3211 46.6564 36.3125 46.6631C36.3038 46.6699 36.2976 46.6793 36.2948 46.69L35.5807 48.5033C35.5608 48.5542 35.5263 48.598 35.4815 48.6289C35.4367 48.6598 35.3837 48.6764 35.3294 48.6766H35.0881C35.0338 48.6764 34.9808 48.6598 34.936 48.6289C34.8912 48.598 34.8567 48.5542 34.8368 48.5033L34.1227 46.69C34.1199 46.6793 34.1137 46.6699 34.105 46.6631C34.0963 46.6564 34.0857 46.6528 34.0748 46.6528C34.0638 46.6528 34.0532 46.6564 34.0445 46.6631C34.0358 46.6699 34.0296 46.6793 34.0268 46.69L33.7656 49.6666C33.7599 49.7353 33.7289 49.7994 33.6787 49.8462C33.6286 49.8931 33.5629 49.9194 33.4945 49.92" fill="black"/>
<path d="M39.002 48.1834C39.0135 47.7253 39.2022 47.2899 39.5277 46.9701C39.5425 46.9552 39.5542 46.9375 39.5622 46.9181C39.5702 46.8987 39.5743 46.8778 39.5743 46.8567C39.5743 46.8357 39.5702 46.8148 39.5622 46.7954C39.5542 46.7759 39.5425 46.7583 39.5277 46.7434C39.2713 46.4634 39.1265 46.0978 39.121 45.7167C39.121 44.6934 39.6202 44.0167 40.7443 44.0167C41.2087 44.014 41.6724 44.0542 42.1296 44.1367C42.171 44.1438 42.2087 44.1654 42.2359 44.1977C42.2631 44.23 42.2781 44.271 42.2783 44.3134V45.0601C42.2782 45.0857 42.2726 45.1111 42.2617 45.1343C42.2509 45.1576 42.2352 45.1782 42.2157 45.1946C42.1962 45.2111 42.1734 45.2232 42.1488 45.2299C42.1242 45.2366 42.0984 45.2378 42.0734 45.2334C41.6893 45.1533 41.2984 45.1109 40.9063 45.1067C40.8203 45.0958 40.7329 45.1041 40.6505 45.1311C40.568 45.1581 40.4925 45.2032 40.4293 45.263C40.3661 45.3229 40.3168 45.3961 40.285 45.4774C40.2531 45.5588 40.2395 45.6462 40.2451 45.7334C40.2451 46.0834 40.4137 46.3434 40.784 46.3434H41.9147C41.9375 46.3434 41.9601 46.348 41.9812 46.3569C42.0023 46.3658 42.0214 46.3789 42.0374 46.3953C42.0534 46.4118 42.066 46.4313 42.0744 46.4527C42.0829 46.4741 42.087 46.497 42.0866 46.5201V47.2567C42.087 47.2798 42.0829 47.3027 42.0744 47.3241C42.066 47.3455 42.0534 47.365 42.0374 47.3815C42.0214 47.3979 42.0023 47.411 41.9812 47.4199C41.9601 47.4288 41.9375 47.4334 41.9147 47.4334H40.784C40.6913 47.4329 40.5996 47.4521 40.5147 47.4897C40.4298 47.5273 40.3537 47.5824 40.2914 47.6516C40.229 47.7207 40.1818 47.8024 40.1528 47.8911C40.1237 47.9798 40.1135 48.0738 40.1227 48.1667C40.1227 48.5901 40.331 48.9067 40.9063 48.9067C41.329 48.9067 41.7507 48.8665 42.1659 48.7867C42.1911 48.7818 42.217 48.7825 42.2419 48.789C42.2667 48.7954 42.2898 48.8074 42.3095 48.824C42.3291 48.8406 42.3449 48.8615 42.3555 48.885C42.3661 48.9086 42.3714 48.9342 42.3709 48.9601V49.6834C42.3714 49.726 42.3566 49.7673 42.3293 49.7998C42.3019 49.8322 42.2639 49.8536 42.2222 49.8601C41.7333 49.9388 41.2393 49.98 40.7443 49.9834C39.5838 49.9834 38.9888 49.2801 38.9888 48.1701" fill="black"/>
<path d="M44.0576 47.92V47.35C44.0576 47.2828 44.0841 47.2184 44.1312 47.1709C44.1784 47.1234 44.2422 47.0967 44.3089 47.0967H46.2661C46.299 47.0967 46.3315 47.1033 46.3618 47.116C46.3921 47.1288 46.4195 47.1475 46.4426 47.1711C46.4657 47.1947 46.4839 47.2226 46.4962 47.2533C46.5084 47.284 46.5145 47.3169 46.5141 47.35V47.93C46.5145 47.9633 46.5084 47.9963 46.4962 48.0272C46.484 48.0581 46.4658 48.0863 46.4428 48.1101C46.4198 48.134 46.3923 48.153 46.362 48.1661C46.3317 48.1793 46.2991 48.1862 46.2661 48.1867H44.3089C44.2419 48.1858 44.1781 48.1584 44.131 48.1103C44.084 48.0623 44.0576 47.9975 44.0576 47.93" fill="black"/>
<path d="M48.3188 47.0167C48.3188 45.2433 48.9503 44.0167 50.3984 44.0167C50.8558 44.0138 51.3078 44.1152 51.7208 44.3133C51.7484 44.3265 51.7717 44.3473 51.7881 44.3732C51.8045 44.3992 51.8132 44.4292 51.8134 44.46V45.2133C51.8133 45.2404 51.8064 45.267 51.7933 45.2907C51.7802 45.3143 51.7614 45.3342 51.7386 45.3486C51.7158 45.3629 51.6898 45.3712 51.663 45.3726C51.6362 45.374 51.6094 45.3685 51.5853 45.3567C51.2901 45.1941 50.9595 45.1082 50.6232 45.1067C49.6876 45.1067 49.4694 45.9567 49.4694 47.0067C49.4694 48.0567 49.5917 48.9067 50.5273 48.9067C50.6125 48.9025 50.6969 48.888 50.7786 48.8633C50.8292 48.8494 50.8739 48.8189 50.9056 48.7767C50.9373 48.7345 50.9542 48.6829 50.9538 48.63V47.9033C50.9538 47.8803 50.9447 47.8583 50.9286 47.842C50.9125 47.8258 50.8906 47.8167 50.8678 47.8167H50.4414C50.4195 47.8167 50.3984 47.8079 50.3829 47.7923C50.3674 47.7766 50.3587 47.7554 50.3587 47.7333V46.8333C50.3583 46.8198 50.3605 46.8062 50.3652 46.7935C50.37 46.7808 50.3772 46.7692 50.3864 46.7593C50.3956 46.7494 50.4066 46.7414 50.4189 46.7358C50.4312 46.7302 50.4444 46.7271 50.4579 46.7267H51.9489C51.9624 46.7271 51.9757 46.7302 51.9879 46.7358C52.0002 46.7414 52.0112 46.7494 52.0205 46.7593C52.0297 46.7692 52.0369 46.7808 52.0416 46.7935C52.0464 46.8062 52.0486 46.8198 52.0481 46.8333V49.4633C52.0478 49.5071 52.032 49.5493 52.0035 49.5823C51.975 49.6153 51.9357 49.637 51.8928 49.6433C51.4464 49.7067 50.9274 49.9967 50.3191 49.9967C48.8644 49.9967 48.3354 48.7933 48.3354 46.9967" fill="black"/>
<path d="M54.9078 46.4533C54.9074 46.4741 54.9111 46.4949 54.9187 46.5143C54.9263 46.5337 54.9377 46.5513 54.9521 46.5662C54.9666 46.5811 54.9839 46.593 55.003 46.601C55.022 46.6091 55.0425 46.6133 55.0632 46.6133H55.6352C56.1013 46.6133 56.2501 46.2799 56.2501 45.9066C56.2501 45.5333 56.1013 45.2033 55.6352 45.2033H55.0632C55.022 45.2033 54.9825 45.2198 54.9533 45.2492C54.9242 45.2785 54.9078 45.3184 54.9078 45.36V46.4533ZM57.8039 49.5666C57.7923 49.6386 57.7633 49.7067 57.7195 49.7648C57.6757 49.8229 57.6184 49.8693 57.5527 49.8999C57.389 49.9675 57.2139 50.0026 57.0369 50.0033C56.8669 50.0052 56.7007 49.9521 56.5627 49.852C56.4247 49.7518 56.3221 49.6098 56.2699 49.4466C55.9757 48.5566 56.0319 47.63 55.2781 47.63C55.2115 47.6306 55.1451 47.6373 55.0797 47.65C55.0284 47.66 54.9821 47.6878 54.949 47.7286C54.9158 47.7694 54.8977 47.8205 54.8979 47.8733V49.5666C54.8979 49.655 54.863 49.7398 54.801 49.8023C54.739 49.8648 54.655 49.8999 54.5673 49.8999H54.1011C54.0134 49.8999 53.9293 49.8648 53.8673 49.8023C53.8053 49.7398 53.7705 49.655 53.7705 49.5666V44.2833C53.7705 44.2388 53.7878 44.196 53.8187 44.1642C53.8496 44.1325 53.8917 44.1142 53.9358 44.1133H55.6616C56.8353 44.1133 57.3742 44.9333 57.3742 45.9066C57.3849 46.177 57.3338 46.4463 57.2249 46.6937C57.1159 46.9411 56.9521 47.1599 56.746 47.3333C56.7353 47.3409 56.7263 47.3506 56.7193 47.3618C56.7124 47.3729 56.7077 47.3854 56.7055 47.3984C56.7034 47.4114 56.7038 47.4247 56.7068 47.4376C56.7098 47.4504 56.7152 47.4626 56.7229 47.4733C56.9386 47.8065 57.0972 48.1738 57.1923 48.5599C57.2783 48.8399 57.3444 49.0933 57.5527 49.0999C57.761 49.1066 57.8503 49.3233 57.8007 49.5666" fill="black"/>
<path d="M60.4489 44.4266V49.5899C60.4489 49.6725 60.4167 49.7517 60.3591 49.8103C60.3015 49.869 60.2233 49.9024 60.1415 49.9033H59.6191C59.5788 49.9028 59.5388 49.8944 59.5017 49.8784C59.4646 49.8624 59.4309 49.8392 59.4027 49.8101C59.3744 49.781 59.3521 49.7466 59.3371 49.7088C59.322 49.6711 59.3145 49.6307 59.315 49.5899V44.4266C59.3145 44.3859 59.322 44.3455 59.3371 44.3077C59.3521 44.27 59.3744 44.2355 59.4027 44.2064C59.4309 44.1773 59.4646 44.1541 59.5017 44.1382C59.5388 44.1222 59.5788 44.1137 59.6191 44.1133H60.1415C60.2233 44.1142 60.3015 44.1476 60.3591 44.2062C60.4167 44.2649 60.4489 44.3441 60.4489 44.4266Z" fill="black"/>
<path d="M65.3251 49.0334V49.6834C65.3255 49.7125 65.3202 49.7415 65.3095 49.7686C65.2987 49.7956 65.2827 49.8203 65.2624 49.8411C65.2421 49.8619 65.2179 49.8784 65.1912 49.8896C65.1645 49.9009 65.1359 49.9067 65.1069 49.9067H62.6968C62.6678 49.9067 62.6392 49.9009 62.6125 49.8896C62.5858 49.8784 62.5616 49.8619 62.5413 49.8411C62.521 49.8203 62.505 49.7956 62.4942 49.7686C62.4834 49.7415 62.4781 49.7125 62.4785 49.6834V44.35C62.4785 44.2914 62.5014 44.2351 62.5423 44.1933C62.5831 44.1515 62.6386 44.1276 62.6968 44.1267H63.3943C63.4233 44.1267 63.4519 44.1325 63.4786 44.1438C63.5053 44.155 63.5295 44.1715 63.5498 44.1923C63.5701 44.2131 63.5861 44.2378 63.5969 44.2648C63.6077 44.2919 63.613 44.3209 63.6126 44.35V48.6034C63.6126 48.6325 63.6183 48.6614 63.6295 48.6883C63.6406 48.7152 63.657 48.7397 63.6776 48.7601C63.6982 48.7806 63.7227 48.7967 63.7495 48.8076C63.7764 48.8185 63.8051 48.8238 63.8341 48.8234H65.1069C65.1651 48.8242 65.2206 48.8482 65.2614 48.8899C65.3022 48.9317 65.3251 48.988 65.3251 49.0467" fill="black"/>
<path d="M69.6171 49.0633V49.65C69.6171 49.7163 69.5909 49.7799 69.5444 49.8267C69.4979 49.8736 69.4349 49.9 69.3691 49.9H67.0185C66.9527 49.9 66.8896 49.8736 66.8431 49.8267C66.7966 49.7799 66.7705 49.7163 66.7705 49.65V44.3666C66.7705 44.3 66.7965 44.2361 66.8429 44.1887C66.8893 44.1412 66.9524 44.1142 67.0185 44.1133H67.6598C67.6924 44.1137 67.7246 44.1206 67.7545 44.1336C67.7844 44.1466 67.8115 44.1653 67.8342 44.1889C67.8569 44.2124 67.8748 44.2402 67.8869 44.2707C67.8989 44.3012 67.9049 44.3338 67.9045 44.3666V48.56C67.9045 48.6266 67.9305 48.6905 67.9769 48.7379C68.0233 48.7853 68.0864 48.8124 68.1524 48.8133H69.3691C69.4349 48.8133 69.4979 48.8396 69.5444 48.8865C69.5909 48.9334 69.6171 48.997 69.6171 49.0633Z" fill="black"/>
<path d="M76.9133 48.56C76.9128 48.5928 76.9188 48.6254 76.9309 48.6559C76.9429 48.6864 76.9609 48.7142 76.9836 48.7377C77.0063 48.7612 77.0334 48.78 77.0633 48.793C77.0932 48.806 77.1254 48.8129 77.1579 48.8133C78.077 48.8133 78.4804 48.3499 78.4804 47.0066C78.4804 45.6633 78.0935 45.2033 77.1579 45.2033C77.0927 45.2042 77.0305 45.2309 76.9847 45.2777C76.939 45.3245 76.9133 45.3876 76.9133 45.4533V48.56ZM75.7793 44.3066C75.7793 44.2559 75.799 44.2072 75.8343 44.1711C75.8695 44.1349 75.9174 44.1142 75.9677 44.1133H77.1976C79.049 44.1133 79.5978 45.4066 79.5978 47.0066C79.5978 48.6066 79.049 49.9033 77.1976 49.9033H75.9677C75.9177 49.9016 75.8703 49.8806 75.8352 49.8446C75.8001 49.8086 75.7801 49.7604 75.7793 49.71V44.3066Z" fill="black"/>
<path d="M85.7309 45.1067C84.987 45.1067 84.7688 45.9567 84.7688 47.0067C84.7688 48.0567 84.987 48.9067 85.7309 48.9067C86.0489 48.9048 86.3594 48.8086 86.6235 48.63C86.639 48.6198 86.6569 48.614 86.6754 48.6132C86.6939 48.6124 86.7123 48.6167 86.7285 48.6256C86.7448 48.6345 86.7584 48.6476 86.7678 48.6637C86.7773 48.6797 86.7823 48.698 86.7822 48.7167V49.5567C86.7825 49.588 86.7743 49.6188 86.7586 49.6458C86.7428 49.6728 86.7202 49.695 86.6929 49.71C86.332 49.8977 85.932 49.996 85.5259 49.9967C84.1836 49.9967 83.6348 48.7934 83.6348 46.9967C83.6348 45.2 84.1836 43.9967 85.5259 43.9967C85.9343 43.9864 86.3381 44.0853 86.6963 44.2834C86.7226 44.2991 86.7445 44.3216 86.7595 44.3485C86.7746 44.3754 86.7824 44.4058 86.7822 44.4367V45.28C86.7828 45.2989 86.7782 45.3175 86.7687 45.3338C86.7593 45.3501 86.7455 45.3634 86.7289 45.3721C86.7123 45.3808 86.6936 45.3846 86.675 45.3831C86.6563 45.3815 86.6385 45.3747 86.6235 45.3634C86.3592 45.1851 86.0489 45.089 85.7309 45.0867" fill="black"/>
<path d="M89.3578 49.9033H88.4949C88.4587 49.9024 88.4242 49.8873 88.3989 49.8611C88.3736 49.835 88.3594 49.7998 88.3594 49.7633V44.2533C88.3594 44.2167 88.3736 44.1816 88.3989 44.1555C88.4242 44.1293 88.4587 44.1142 88.4949 44.1133H89.3578C89.3759 44.1133 89.3938 44.1169 89.4105 44.124C89.4271 44.1311 89.4422 44.1414 89.4548 44.1545C89.4675 44.1675 89.4774 44.183 89.484 44.2C89.4906 44.2169 89.4938 44.2351 89.4934 44.2533V46.2066C89.4934 46.2429 89.5076 46.2776 89.5331 46.3033C89.5585 46.3289 89.593 46.3433 89.6289 46.3433H90.71C90.746 46.3433 90.7804 46.3289 90.8059 46.3033C90.8313 46.2776 90.8456 46.2429 90.8456 46.2066V44.2533C90.8456 44.2167 90.8598 44.1816 90.8851 44.1555C90.9104 44.1293 90.9449 44.1142 90.9811 44.1133H91.844C91.8621 44.1133 91.88 44.1169 91.8967 44.124C91.9133 44.1311 91.9284 44.1414 91.941 44.1545C91.9537 44.1675 91.9636 44.183 91.9702 44.2C91.9768 44.2169 91.98 44.2351 91.9796 44.2533V49.7633C91.98 49.7815 91.9768 49.7996 91.9702 49.8166C91.9636 49.8336 91.9537 49.849 91.941 49.8621C91.9284 49.8751 91.9133 49.8855 91.8967 49.8926C91.88 49.8997 91.8621 49.9033 91.844 49.9033H90.9679C90.9316 49.9024 90.8972 49.8873 90.8718 49.8611C90.8465 49.835 90.8323 49.7998 90.8323 49.7633V47.5699C90.8323 47.5337 90.8181 47.4989 90.7927 47.4733C90.7672 47.4477 90.7328 47.4333 90.6968 47.4333H89.6455C89.6095 47.4333 89.575 47.4477 89.5496 47.4733C89.5242 47.4989 89.5099 47.5337 89.5099 47.5699V49.7633C89.5103 49.7815 89.5072 49.7996 89.5006 49.8166C89.494 49.8336 89.484 49.849 89.4714 49.8621C89.4588 49.8751 89.4437 49.8855 89.427 49.8926C89.4103 49.8997 89.3925 49.9033 89.3744 49.9033" fill="black"/>
<path d="M95.1467 44.2666V49.75C95.1467 49.7901 95.1311 49.8286 95.1033 49.8572C95.0755 49.8859 95.0377 49.9024 94.9979 49.9033H94.1615C94.1217 49.9024 94.0839 49.8859 94.0561 49.8572C94.0283 49.8286 94.0127 49.7901 94.0127 49.75V44.2666C94.0127 44.2265 94.0283 44.188 94.0561 44.1594C94.0839 44.1307 94.1217 44.1142 94.1615 44.1133H94.9979C95.0377 44.1142 95.0755 44.1307 95.1033 44.1594C95.1311 44.188 95.1467 44.2265 95.1467 44.2666Z" fill="black"/>
<path d="M99.0775 45.1066C98.3337 45.1066 98.1155 45.9566 98.1155 47.0066C98.1155 48.0566 98.3337 48.9066 99.0775 48.9066C99.3784 48.9053 99.6728 48.8187 99.9272 48.6566C99.9475 48.644 99.9707 48.6371 99.9945 48.6368C100.018 48.6364 100.042 48.6425 100.062 48.6544C100.083 48.6664 100.1 48.6837 100.112 48.7046C100.124 48.7256 100.129 48.7493 100.129 48.7733V49.58C100.129 49.6044 100.123 49.6284 100.11 49.6495C100.098 49.6706 100.081 49.688 100.059 49.6999C99.6933 49.8937 99.2861 49.9955 98.8726 49.9966C97.5303 49.9966 96.9814 48.7933 96.9814 46.9966C96.9814 45.2 97.5303 43.9966 98.8726 43.9966C99.2885 43.9858 99.6997 44.0883 100.063 44.2933C100.083 44.3056 100.1 44.3232 100.112 44.3443C100.123 44.3654 100.129 44.3892 100.129 44.4133V45.2199C100.129 45.244 100.124 45.2677 100.112 45.2886C100.1 45.3095 100.083 45.3269 100.062 45.3388C100.042 45.3508 100.018 45.3569 99.9945 45.3565C99.9707 45.3561 99.9475 45.3492 99.9272 45.3366C99.6725 45.1754 99.3783 45.0888 99.0775 45.0866" fill="black"/>
<path d="M105.624 49.3966C105.63 49.4929 105.609 49.589 105.561 49.6727C105.513 49.7564 105.442 49.8239 105.356 49.8666C105.175 49.9522 104.977 49.9966 104.777 49.9966C104.608 49.9978 104.443 49.9444 104.305 49.8443C104.168 49.7442 104.066 49.6026 104.014 49.44C103.719 48.54 103.729 47.7133 103.078 47.7133C103.051 47.7098 103.023 47.7098 102.995 47.7133C102.952 47.7205 102.912 47.7433 102.883 47.7775C102.855 47.8118 102.839 47.8552 102.84 47.9V49.7433C102.84 49.7834 102.824 49.8219 102.797 49.8505C102.769 49.8792 102.731 49.8957 102.691 49.8966H101.855C101.815 49.8957 101.777 49.8792 101.749 49.8505C101.722 49.8219 101.706 49.7834 101.706 49.7433V44.23C101.706 44.199 101.718 44.1693 101.74 44.1475C101.762 44.1256 101.791 44.1133 101.822 44.1133H102.724C102.755 44.1133 102.784 44.1256 102.806 44.1475C102.828 44.1693 102.84 44.199 102.84 44.23V46.4099C102.84 46.4201 102.844 46.4299 102.85 46.4379C102.856 46.4459 102.865 46.4517 102.874 46.4543C102.884 46.457 102.894 46.4563 102.904 46.4525C102.913 46.4487 102.921 46.442 102.926 46.4333L104.205 44.1733C104.216 44.1553 104.231 44.1404 104.249 44.1299C104.267 44.1194 104.287 44.1137 104.308 44.1133H105.316C105.337 44.1133 105.357 44.1188 105.375 44.1292C105.392 44.1396 105.407 44.1545 105.417 44.1725C105.427 44.1904 105.432 44.2108 105.432 44.2314C105.432 44.2521 105.426 44.2723 105.416 44.29L103.928 46.9099C104.513 47.2599 104.691 47.7499 104.939 48.5766C105.025 48.8566 105.092 49.1166 105.3 49.1166C105.342 49.1096 105.385 49.1121 105.425 49.124C105.466 49.1359 105.504 49.1568 105.535 49.1853C105.567 49.2137 105.592 49.249 105.609 49.2884C105.625 49.3279 105.632 49.3705 105.63 49.4133" fill="black"/>
<path d="M106.612 48.1834C106.619 47.9506 106.671 47.7214 106.765 47.5091C106.86 47.2968 106.996 47.1056 107.165 46.9467C107.177 46.9354 107.186 46.9218 107.193 46.9066C107.2 46.8914 107.203 46.875 107.203 46.8584C107.203 46.8418 107.2 46.8253 107.193 46.8101C107.186 46.7949 107.177 46.7813 107.165 46.77C106.896 46.485 106.743 46.1095 106.735 45.7167C106.735 44.6933 107.237 44.0167 108.361 44.0167C108.835 44.0144 109.307 44.0568 109.773 44.1434C109.806 44.1482 109.837 44.1651 109.859 44.1908C109.881 44.2166 109.892 44.2494 109.892 44.2834V45.1034C109.892 45.1236 109.887 45.1436 109.879 45.1619C109.87 45.1801 109.858 45.1964 109.842 45.2094C109.827 45.2223 109.809 45.2318 109.79 45.2371C109.77 45.2424 109.75 45.2434 109.73 45.24C109.332 45.1571 108.927 45.1124 108.52 45.1067C108.434 45.0957 108.347 45.104 108.264 45.131C108.182 45.1581 108.106 45.2031 108.043 45.263C107.98 45.3229 107.931 45.3961 107.899 45.4774C107.867 45.5587 107.853 45.6461 107.859 45.7334C107.859 46.0834 108.031 46.3433 108.398 46.3433H109.565C109.602 46.3433 109.637 46.3581 109.663 46.3844C109.689 46.4106 109.704 46.4462 109.704 46.4834V47.29C109.704 47.3087 109.701 47.3273 109.694 47.3446C109.687 47.362 109.677 47.3778 109.664 47.3912C109.651 47.4045 109.636 47.4151 109.619 47.4224C109.602 47.4296 109.583 47.4334 109.565 47.4334H108.398C108.305 47.4329 108.213 47.4521 108.128 47.4897C108.044 47.5273 107.968 47.5824 107.905 47.6516C107.843 47.7207 107.796 47.8023 107.767 47.8911C107.737 47.9798 107.727 48.0737 107.737 48.1667C107.737 48.59 107.945 48.9067 108.52 48.9067C108.957 48.906 109.394 48.8625 109.823 48.7767C109.843 48.7726 109.864 48.7732 109.884 48.7785C109.903 48.7837 109.922 48.7934 109.937 48.8069C109.953 48.8204 109.965 48.8373 109.974 48.8563C109.982 48.8753 109.986 48.896 109.985 48.9167V49.73C109.985 49.7639 109.973 49.7968 109.951 49.8226C109.929 49.8483 109.899 49.8652 109.866 49.87C109.368 49.9506 108.865 49.9929 108.361 49.9967C107.198 49.9967 106.603 49.2933 106.603 48.1834" fill="black"/>
<path d="M112.497 49.9034H111.76C111.738 49.9034 111.716 49.899 111.696 49.8904C111.675 49.8818 111.657 49.8692 111.642 49.8534C111.626 49.8376 111.614 49.8188 111.606 49.7982C111.598 49.7776 111.594 49.7556 111.594 49.7334V44.2201C111.594 44.2062 111.596 44.1924 111.601 44.1795C111.606 44.1666 111.614 44.1548 111.623 44.1448C111.633 44.1349 111.644 44.127 111.657 44.1216C111.669 44.1162 111.683 44.1134 111.697 44.1134H112.576C112.596 44.1133 112.616 44.1193 112.632 44.1306C112.649 44.1419 112.661 44.158 112.669 44.1767L114.028 47.1767C114.033 47.1868 114.041 47.1948 114.052 47.1997C114.062 47.2045 114.073 47.2059 114.084 47.2037C114.096 47.2015 114.106 47.1957 114.113 47.1872C114.121 47.1788 114.126 47.1681 114.127 47.1567V44.2101C114.126 44.1962 114.129 44.1824 114.134 44.1695C114.139 44.1566 114.146 44.1448 114.156 44.1348C114.165 44.1249 114.177 44.117 114.189 44.1116C114.202 44.1062 114.216 44.1034 114.229 44.1034H115.089C115.117 44.1034 115.144 44.1146 115.164 44.1346C115.184 44.1546 115.195 44.1818 115.195 44.2101V49.7234C115.195 49.7679 115.177 49.8106 115.146 49.8424C115.116 49.8742 115.073 49.8925 115.029 49.8934H114.252C114.22 49.8931 114.189 49.8835 114.162 49.8658C114.135 49.8481 114.114 49.823 114.1 49.7934L112.758 46.8167C112.754 46.8051 112.746 46.7954 112.735 46.7895C112.724 46.7837 112.712 46.782 112.7 46.7849C112.688 46.7878 112.677 46.795 112.67 46.8052C112.664 46.8154 112.661 46.8278 112.662 46.84V49.7234C112.662 49.7679 112.645 49.8106 112.614 49.8424C112.583 49.8742 112.541 49.8925 112.497 49.8934" fill="black"/>
<path d="M133.845 34.89C133.845 35.2056 133.72 35.5083 133.499 35.7315C133.278 35.9547 132.977 36.08 132.664 36.08C132.351 36.08 132.051 35.9547 131.83 35.7315C131.608 35.5083 131.484 35.2056 131.484 34.89C131.484 34.5744 131.608 34.2718 131.83 34.0486C132.051 33.8254 132.351 33.7 132.664 33.7C132.977 33.7 133.278 33.8254 133.499 34.0486C133.72 34.2718 133.845 34.5744 133.845 34.89ZM132.668 33.53C132.311 33.5318 131.97 33.676 131.719 33.9309C131.468 34.1859 131.328 34.5308 131.329 34.89C131.329 35.2472 131.469 35.5897 131.72 35.8423C131.97 36.0948 132.31 36.2367 132.664 36.2367C133.019 36.2367 133.358 36.0948 133.609 35.8423C133.859 35.5897 134 35.2472 134 34.89C134.003 34.7133 133.97 34.5377 133.905 34.3737C133.84 34.2096 133.743 34.0602 133.62 33.9343C133.497 33.8083 133.35 33.7083 133.188 33.6401C133.026 33.5718 132.853 33.5367 132.678 33.5367" fill="black"/>
<path d="M132.39 34.85V34.35H132.754C132.939 34.35 133.048 34.4333 133.048 34.5933C133.048 34.7533 132.935 34.8367 132.757 34.8367L132.39 34.85ZM133.302 34.5933C133.302 34.3067 133.101 34.13 132.773 34.13H132.139V35.5833H132.39V35.0767H132.721L133.051 35.5833H133.345L132.962 35.0333C133.059 35.0102 133.145 34.9536 133.206 34.8733C133.266 34.793 133.297 34.694 133.293 34.5933" fill="black"/>
<path d="M36.4168 33.2733C36.0497 33.0913 35.7452 32.8025 35.5428 32.4441C35.3403 32.0857 35.2492 31.6743 35.2813 31.2632C35.3134 30.852 35.4671 30.46 35.7226 30.1379C35.9781 29.8158 36.3236 29.5785 36.7144 29.4566C37.5527 29.2023 38.4513 29.2387 39.2667 29.5599C39.3234 29.5874 39.3718 29.6297 39.4067 29.6825C39.4416 29.7353 39.4617 29.7966 39.465 29.8599C39.5154 30.79 39.7049 31.707 40.0271 32.5799C40.0593 32.6663 40.0573 32.7619 40.0216 32.8469C39.986 32.9319 39.9192 32.9998 39.8353 33.0366C39.1741 33.3166 37.6467 33.8466 36.4168 33.2733ZM32.0197 35.7199C32.5407 36.2435 33.1598 36.6575 33.8408 36.9379C34.5219 37.2183 35.2514 37.3595 35.987 37.3533C38.8831 37.3533 41.3198 35.5166 41.3198 35.5166C42.6422 36.9633 44.1068 37.3499 45.1218 37.3499C47.2278 37.3499 48.7982 36.4233 48.7982 35.0766C48.7982 34.4966 48.4676 34.2399 47.8956 34.2399C47.3931 34.2399 47.0757 34.5733 46.2888 34.5733C45.1218 34.5733 44.9036 31.7266 44.9036 29.51C44.9036 27.2933 45.1582 23.8099 45.2573 21.5099C45.5053 15.6933 41.9512 13.7766 37.3524 13.7766C33.9868 13.7766 31.0708 16.3799 31.0708 19.5499C31.0708 21.6666 32.1255 23.3833 34.4431 23.3833C34.7443 23.3958 35.0448 23.3447 35.3253 23.2333C35.6059 23.122 35.8603 22.9528 36.0722 22.7366C36.2841 22.5204 36.449 22.262 36.5561 21.9778C36.6633 21.6937 36.7104 21.3902 36.6945 21.0866C36.6945 19.8333 35.868 19.2899 35.0216 18.8333C34.1753 18.3766 34.1753 17.8166 34.3075 17.4599C34.4796 16.9172 34.8248 16.4471 35.2895 16.1228C35.7541 15.7985 36.312 15.6381 36.8764 15.6666C38.2319 15.6666 40.2519 17.3333 39.789 22.4333C39.6766 23.6799 39.6105 25.2266 39.5609 25.7933C39.5592 25.8192 39.5516 25.8444 39.5388 25.8669C39.5259 25.8894 39.5081 25.9086 39.4867 25.9231C39.4653 25.9376 39.4409 25.9469 39.4154 25.9504C39.3899 25.9539 39.3638 25.9515 39.3394 25.9433C38.5168 25.6936 37.6627 25.5656 36.8036 25.5633C33.8843 25.5633 30.4989 27.6333 30.4989 31.7933C30.4682 32.5193 30.587 33.2438 30.8475 33.9213C31.1081 34.5988 31.505 35.2146 32.0131 35.73" fill="black"/>
<path d="M127.401 17.45C127.49 17.82 127.533 18.3667 126.687 18.8234C125.84 19.28 125.034 19.8234 125.034 21.0734C125.018 21.3769 125.065 21.6805 125.172 21.9646C125.279 22.2487 125.444 22.5071 125.656 22.7233C125.868 22.9395 126.122 23.1087 126.403 23.2201C126.683 23.3314 126.984 23.3825 127.285 23.37C129.599 23.37 130.657 21.6534 130.657 19.54C130.657 16.54 128.416 13.9634 124.706 13.8067C120.918 13.65 117.033 16.2167 117.063 21.5433C117.083 25.0067 119.238 27.56 123.414 29.8C125.764 30.97 126.898 31.72 126.898 33.1C126.898 33.9533 126.472 35.2367 124.736 35.2367C123 35.2367 121.761 34.2034 121.546 32.4367C121.5 31.9549 121.273 31.5092 120.91 31.192C120.548 30.8749 120.078 30.7106 119.598 30.7334C118.312 30.7334 117.192 32.09 118.035 34.0467C118.491 35.1067 120.018 37.3433 124.769 37.3433C129.52 37.3433 130.138 33.7167 130.244 33.0667C130.776 29.8334 129.338 28.01 127.394 26.3767C124.544 23.98 121.724 23.0733 121.251 20.3767C120.719 17.3267 122.647 15.71 124.925 15.71C125.47 15.7031 126.005 15.868 126.453 16.1817C126.902 16.4953 127.242 16.9422 127.427 17.46" fill="black"/>
<path d="M90.637 31.0166C92.7727 31.0166 92.009 37.2566 86.0911 37.2566C82.0774 37.2566 79.621 34.6933 79.621 29.2033V19.6833C79.621 17.4766 79.2078 17.35 77.3067 17.35C76.5265 17.35 75.8521 16.96 75.8521 15.8133C75.8521 14.9966 76.381 14.4166 77.5382 14.4166C79.5218 14.4166 80.2954 13.7666 80.5434 12.5933C81.4228 8.4733 81.046 3.42664 83.3007 3.42664C85.3538 3.42664 84.9538 6.55663 84.9538 12.2866C84.9538 14.0033 85.3769 14.3666 86.7159 14.3666H90.2038C91.0403 14.3666 91.7247 14.85 91.7247 15.8033C91.7247 16.9466 91.0304 17.3566 90.2733 17.3566H87.1391C85.2183 17.3566 85.0695 18.0033 85.0695 19.1066V32.0433C85.0695 33.61 85.8894 34.2233 87.0928 34.2233C89.4335 34.2233 88.5971 31.0266 90.637 31.0266" fill="black"/>
<path d="M52.2199 0.329956C51.0661 0.329956 50.5371 0.966621 50.5371 1.78662C50.5371 2.92995 51.1984 3.18995 51.972 3.37662C52.3588 3.46328 53.1919 3.50329 53.1952 4.59996V32.42C53.1952 33.5166 52.3588 33.5566 51.9687 33.6433C51.2116 33.8333 50.5371 34.0933 50.5371 35.2366C50.5371 36.0533 51.0628 36.69 52.2199 36.69H59.7347C60.8919 36.69 61.4208 36.0533 61.4208 35.2366C61.4208 34.0899 60.7431 33.83 59.986 33.6433C59.5959 33.5566 58.766 33.5166 58.7594 32.42C58.7594 31.15 58.7594 8.24662 58.7594 1.78662C58.7594 0.969954 58.2304 0.333293 57.0733 0.333293L52.2199 0.329956Z" fill="black"/>
<path d="M68.6215 10.8234C69.3006 10.832 69.967 10.6368 70.5359 10.2626C71.1048 9.88838 71.5505 9.3521 71.8163 8.72189C72.0822 8.09168 72.1562 7.396 72.0289 6.72329C71.9016 6.05058 71.5789 5.43122 71.1016 4.94392C70.6243 4.45661 70.0141 4.12339 69.3486 3.98659C68.683 3.84979 67.9921 3.9156 67.3638 4.17566C66.7354 4.43571 66.1979 4.87826 65.8196 5.44706C65.4414 6.01586 65.2394 6.68521 65.2393 7.37005C65.2349 8.27979 65.5884 9.15418 66.2224 9.80152C66.8564 10.4489 67.7192 10.8163 68.6215 10.8234Z" fill="black"/>
<path d="M70.5822 14.4101C71.736 14.4101 72.265 15.0467 72.265 15.8634C72.265 21.6267 72.265 32.3501 72.265 32.3501C72.3014 33.3501 72.7179 33.5201 73.8089 33.6834C74.5429 33.8334 75.0256 34.1301 75.0157 35.1034C75.0157 36.2767 74.3809 36.6734 72.9626 36.6734H65.7156C64.5584 36.6734 64.0328 36.0367 64.0328 35.2201C64.0328 34.0734 64.694 33.8167 65.4643 33.6267C65.8544 33.5401 66.6842 33.5 66.6909 32.4034V18.6634C66.6909 17.4101 65.7189 17.5267 65.342 17.4101C64.9651 17.2934 64.0195 17.0167 64.0195 15.8501C64.0195 14.6834 64.899 14.3967 66.0032 14.3967H70.5657" fill="black"/>
<path d="M23.7046 8.53962C23.7046 3.48962 18.6793 2.11629 15.3533 3.06296C11.4753 4.16629 6.94917 8.93963 6.94917 19.2396C6.94917 25.4396 10.3115 34.2196 16.6625 34.2196C18.9768 34.2196 18.8809 32.603 18.8809 29.4663C18.8809 27.1896 18.9999 26.5196 16.5666 26.5196C15.8095 26.5196 15.1186 26.1096 15.1186 24.9663C15.1186 24.1463 15.6443 23.5096 16.8014 23.5096H27.1594C28.3166 23.5096 28.8422 24.1463 28.8422 24.9663C28.8422 25.2363 29.1134 26.573 26.5875 26.573C24.6435 26.573 25.0667 27.5563 25.0667 32.8296C25.0667 37.353 25.5031 37.3363 16.6328 37.3363C4.68781 37.3363 -0.00356893 27.3363 -0.00356893 17.7363C-0.0279553 15.104 0.488139 12.4951 1.51229 10.0737C2.53644 7.65231 4.04649 5.47077 5.94743 3.66629C10.3082 -0.373708 18.0974 -1.17038 22.3523 1.74295C28.4257 5.89629 26.8387 15.133 22.6532 15.133C20.7819 15.133 19.5289 13.9696 19.5289 12.563C19.5289 10.3763 21.1357 10.183 22.2069 10.183C23.2781 10.183 23.7013 9.44296 23.7013 8.53962" fill="black"/>
<path d="M113.092 4.97668C112.054 4.97668 110.963 5.82002 110.851 7.31002C110.851 10.9234 113.925 9.81001 113.925 12.46C113.925 13.6067 113.595 14.04 113.469 14.5634C113.347 15.1534 113.694 15.4967 114.13 15.4967C116.335 15.4967 117.069 10.9467 116.312 8.19669C115.651 5.75002 114.309 4.99002 113.105 4.99002" fill="black"/>
<path d="M103.362 34.5367C101.286 34.5367 99.3948 32.36 99.3948 25.36C99.3948 23.2767 99.666 16.5767 103.362 16.5767C107.058 16.5767 107.564 23.2433 107.564 25.3333C107.564 32.3333 105.438 34.5367 103.362 34.5367ZM103.362 13.76C96.4689 13.76 93.4438 19.27 93.4438 26.0733C93.4438 31.4067 96.7004 37.3533 103.422 37.3533C110.143 37.3533 113.396 31.4133 113.396 26.0733C113.396 19.27 110.242 13.76 103.346 13.76" fill="black"/>
</g>
<defs>
<clipPath id="clip0_414_1644">
<rect width="134" height="50" fill="white"/>
</clipPath>
</defs>
</svg>
