<svg width="108" height="66" viewBox="0 0 108 66" fill="none" xmlns="http://www.w3.org/2000/svg">
<path d="M103.363 58.6237C103.234 58.6074 103.103 58.6074 102.974 58.6237C102.575 58.6785 102.35 58.6237 102.575 58.4541C103.155 57.9835 103.883 58.2078 104.884 58.268C105.886 58.3282 106.405 57.3924 106.761 57.4088C107.352 57.376 108.009 57.7591 107.998 57.4417C107.927 57.0257 107.396 56.8944 106.471 56.1556C105.546 55.4168 104.594 55.7506 103.089 56.287C101.584 56.8233 101.031 56.7631 100.867 56.7248C100.703 56.6865 100.752 56.4894 101.535 56.2651C102.739 55.8984 102.498 54.8914 102.832 54.7984C103.166 54.7054 103.899 54.3551 103.499 54.2074C103.053 54.0893 102.583 54.0893 102.137 54.2074C100.074 53.9885 98.9189 55.767 98.4592 56.3581C97.5343 57.5566 95.7831 56.6536 92.0618 56.0845C90.3856 55.8082 88.7293 55.4225 87.1036 54.9297C87.0215 54.9038 86.9496 54.8529 86.8977 54.7843C86.8457 54.7157 86.8163 54.6327 86.8136 54.5467C86.8218 53.7167 86.5988 52.9009 86.1697 52.1905C85.7406 51.4801 85.1222 50.9032 84.3837 50.5243C84.3657 50.5155 84.3501 50.5024 84.3381 50.4863C84.3262 50.4701 84.3183 50.4514 84.3151 50.4315C84.3119 50.4117 84.3134 50.3914 84.3197 50.3723C84.3259 50.3533 84.3366 50.3359 84.3509 50.3218L84.8981 49.7746C85.2812 49.3805 80.8375 47.5363 73.0391 48.7129C73.0046 48.7169 72.9698 48.7087 72.9408 48.6897C72.9118 48.6707 72.8904 48.6421 72.8803 48.6089L72.738 48.0945C72.7323 48.075 72.731 48.0544 72.7342 48.0343C72.7374 48.0142 72.745 47.995 72.7565 47.9782C72.7681 47.9615 72.7832 47.9475 72.8008 47.9373C72.8185 47.9271 72.8382 47.921 72.8585 47.9194C73.2711 47.9056 73.6648 47.7428 73.9667 47.4611C74.2686 47.1794 74.4581 46.7978 74.5002 46.387C74.5768 45.5333 74.3306 45.0025 74.3689 44.4333C74.3699 44.4139 74.3752 44.3949 74.3845 44.3777C74.3937 44.3605 74.4066 44.3457 74.4224 44.3341C74.4381 44.3226 74.4562 44.3147 74.4753 44.3111C74.4945 44.3074 74.5142 44.308 74.5331 44.3129C74.8329 44.4056 75.15 44.4286 75.4601 44.3802C75.7702 44.3319 76.0652 44.2134 76.3226 44.0338C76.3463 44.0138 76.3764 44.0028 76.4074 44.0028C76.4385 44.0028 76.4685 44.0138 76.4923 44.0338C76.7509 44.3714 77.1305 44.5954 77.5511 44.6587C77.9717 44.722 78.4004 44.6196 78.747 44.3731C78.7588 44.3648 78.7721 44.3589 78.7863 44.3557C78.8004 44.3526 78.815 44.3523 78.8293 44.3548C78.8436 44.3574 78.8571 44.3627 78.8693 44.3705C78.8815 44.3784 78.892 44.3886 78.9002 44.4005C79.2066 44.8547 80.6295 46.7428 82.4738 45.495C82.5052 45.4732 82.5439 45.4644 82.5816 45.4706C82.6194 45.4767 82.6533 45.4972 82.6763 45.5278C82.9773 45.9766 84.1922 47.4816 86.5071 46.5567C86.5212 46.5485 86.5373 46.5442 86.5536 46.5442C86.57 46.5442 86.586 46.5485 86.6001 46.5567C86.8519 46.7811 88.2419 47.9522 89.4294 47.1532C90.71 46.2721 89.3419 43.2403 86.4469 40.4C84.6902 38.6105 83.7872 38.6707 83.0101 38.4956C82.8534 38.465 82.7057 38.3996 82.5778 38.304C82.4247 38.1894 82.3175 38.0239 82.2754 37.8374C82.2333 37.6509 82.259 37.4554 82.3479 37.2861C82.5559 36.7717 83.6942 35.9946 84.1976 35.7045C84.4047 35.5932 84.6321 35.5246 84.8662 35.503C85.1003 35.4814 85.3364 35.5071 85.5603 35.5787C87.0215 35.7702 87.7986 35.3434 88.116 35.0971C88.1372 35.0791 88.1622 35.0661 88.1891 35.0591C88.216 35.052 88.2441 35.0511 88.2714 35.0564C88.2987 35.0616 88.3245 35.0729 88.3468 35.0894C88.3692 35.1059 88.3876 35.1273 88.4006 35.1518C88.7837 35.8195 90.0424 37.8224 91.81 37.9866C93.2986 38.1234 94.0428 37.111 94.0483 35.9016C94.049 35.8673 94.0429 35.8333 94.0303 35.8014C94.0177 35.7696 93.9989 35.7406 93.975 35.7161C93.951 35.6917 93.9224 35.6722 93.8908 35.659C93.8592 35.6457 93.8253 35.6389 93.7911 35.6389C93.107 35.6389 91.1588 35.513 90.0807 34.1941C90.0737 34.1879 90.0681 34.1804 90.0643 34.1719C90.0604 34.1634 90.0585 34.1542 90.0585 34.1449C90.0585 34.1355 90.0604 34.1263 90.0643 34.1178C90.0681 34.1094 90.0737 34.1018 90.0807 34.0956C90.4263 33.9103 90.6942 33.6075 90.8359 33.2419C90.8426 33.2206 90.8556 33.2018 90.8732 33.1881C90.8908 33.1745 90.9121 33.1665 90.9344 33.1653C91.1972 33.1551 91.4603 33.179 91.717 33.2364C92.2643 33.3732 92.3354 32.1966 91.323 30.9379C91.306 30.9109 91.2969 30.8796 91.2969 30.8476C91.2969 30.8157 91.306 30.7844 91.323 30.7573C91.6083 30.2605 91.7908 29.7113 91.8594 29.1425C91.9281 28.5737 91.8815 27.9968 91.7225 27.4464C91.5966 26.5653 92.5762 26.7404 92.3463 25.1534C92.3529 24.1704 92.5383 23.1968 92.8936 22.2803C93.0851 21.733 94.6229 18.0773 92.8936 14.4983C91.1643 10.9192 87.9683 10.8316 86.6056 11.762C85.2429 12.6923 84.5698 14.4162 86.5235 17.3276C87.9956 19.5166 87.3006 20.4689 86.6603 20.5236C85.0514 20.6659 85.8449 17.0759 83.4041 15.757C82.3972 15.2097 79.9564 15.8664 80.0658 17.9077C80.1753 19.949 81.8061 20.3868 81.8171 21.9848C81.8171 23.041 80.1206 23.1176 79.8415 21.2952C79.5624 19.4728 77.0669 21.0763 77.4664 23.4843C77.5906 24.0709 77.8683 24.6141 78.2712 25.0583C78.674 25.5025 79.1876 25.8318 79.7594 26.0126C80.3449 26.2041 79.0972 27.7966 77.7838 28.5738C74.9818 30.2155 67.5227 31.6767 60.474 30.8339C58.783 30.6315 57.7377 32.7931 58.6242 34.2379C58.6393 34.2612 58.6495 34.2872 58.6544 34.3145C58.6592 34.3417 58.6586 34.3697 58.6524 34.3967C58.6463 34.4238 58.6349 34.4493 58.6188 34.4718C58.6026 34.4943 58.5822 34.5134 58.5586 34.5279C57.2177 35.3002 55.66 35.6098 54.1258 35.409C52.2032 35.0305 50.3884 34.2305 48.8119 33.0667C48.1935 32.5633 48.6258 31.425 49.184 30.3852C49.7422 29.3454 52.6153 22.1763 50.6288 15.8007C49.9733 13.4746 48.5132 11.4568 46.5087 10.1068C44.5042 8.75674 42.0855 8.16223 39.6836 8.42916C39.5499 8.44506 39.4144 8.43123 39.2867 8.38866C39.159 8.34608 39.0422 8.27582 38.9448 8.18289C37.1826 6.43713 27.8847 -2.10011 19.3256 2.55159C19.2014 2.62263 19.0609 2.66 18.9179 2.66C18.7748 2.66 18.6343 2.62263 18.5102 2.55159C16.841 1.59936 10.1918 -1.7827 4.43465 1.21081C-0.682223 4.04014 -0.3867 10.0655 0.538168 12.747C1.46304 15.4286 3.41127 14.5037 3.92022 14.0714C5.95603 12.3421 5.8028 11.6033 7.55403 11.3734C10.2028 11.0177 15.1226 15.5435 18.833 20.4305C22.5434 25.3176 26.5713 30.927 32.2518 34.2105C32.2668 34.2187 32.2798 34.2301 32.2898 34.2439C32.2999 34.2577 32.3067 34.2735 32.3099 34.2903C32.313 34.307 32.3124 34.3243 32.308 34.3408C32.3037 34.3573 32.2957 34.3726 32.2847 34.3856C31.8523 34.8508 30.0628 36.7826 28.733 37.9374C27.2116 39.2617 28.317 40.3398 29.0668 40.6408C29.9971 41.002 31.3488 41.1881 33.3026 40.3781C33.3259 40.3647 33.3523 40.3576 33.3792 40.3576C33.4061 40.3576 33.4325 40.3647 33.4558 40.3781C33.8091 40.6156 34.2112 40.7709 34.6324 40.8324C35.4904 40.9953 36.3744 40.9578 37.2155 40.7229C37.243 40.7147 37.2724 40.715 37.2997 40.7238C37.3271 40.7326 37.3511 40.7494 37.3687 40.7722C37.5712 41.0567 38.4632 42.0144 40.6906 41.8065C40.7217 41.8051 40.7526 41.8133 40.779 41.8299C40.8054 41.8465 40.8261 41.8708 40.8383 41.8995C40.9751 42.2443 41.5717 43.3771 43.5746 43.3771C44.0124 43.4154 43.3448 44.8985 44.2642 46.5512C44.2721 46.5641 44.2775 46.5785 44.2799 46.5935C44.2823 46.6085 44.2817 46.6238 44.2781 46.6385C44.2745 46.6533 44.2681 46.6672 44.2591 46.6795C44.2502 46.6917 44.2388 46.7021 44.2259 46.7099C43.7224 47.0273 41.2159 48.3791 37.6588 46.3159C36.8816 45.8398 37.4344 47.8263 36.92 47.8975C36.4055 47.9686 35.8638 46.8467 35.6558 46.3925C35.3658 45.7577 33.7623 46.2776 33.7623 49.9552C33.7623 50.1029 33.7623 50.2616 33.7623 50.4313C33.7674 50.5046 33.7449 50.5772 33.6994 50.6348C33.6539 50.6925 33.5885 50.7312 33.516 50.7432C27.7315 51.7064 23.0688 49.698 22.7624 49.3422C22.4559 48.9865 22.7624 48.6034 23.523 48.4174C24.9897 48.0507 24.7927 46.4144 25.1265 46.2612C25.4603 46.1079 25.9584 45.8617 25.2798 45.7851C21.9251 45.5771 21.9087 48.7019 21.1534 48.286C20.3982 47.8701 20.8196 46.7865 21.0932 46.5348C23.2056 45.2433 22.3027 43.5413 22.527 43.2512C22.7514 42.9612 22.9375 42.5179 22.226 42.5945C19.4897 43.0104 19.0848 44.9587 19.0519 45.8781C19.0519 46.4636 19.0082 47.0766 18.7345 46.688C17.7385 45.1612 18.5375 44.7288 18.647 42.901C18.7564 41.0731 17.7659 40.8214 17.9027 40.1647C18.0395 39.508 17.8042 39.0428 17.4211 39.5518C17.4211 39.5518 13.946 43.8915 18.5977 49.1562C22.2589 53.2989 30.7524 53.1512 34.2165 52.8939C34.2834 52.8897 34.3501 52.905 34.4084 52.9381C34.4667 52.9711 34.5141 53.0204 34.5448 53.08C35.4478 54.771 37.2812 56.473 40.7563 57.1078C46.5408 58.1586 54.0765 54.7601 56.2765 53.9611C56.3014 53.9533 56.328 53.9527 56.3532 53.9595C56.3785 53.9663 56.4012 53.9801 56.4188 53.9994C56.8402 54.4865 59.9267 57.2009 67.0356 54.6561C67.0775 54.6416 67.1224 54.6375 67.1662 54.6442C67.2101 54.6509 67.2516 54.6681 67.2874 54.6944C68.1301 55.3785 73.7341 59.68 80.4982 59.68C82.6872 59.68 83.8364 59.0506 84.2305 58.777C84.2489 58.7638 84.2703 58.7553 84.2928 58.7524C84.3153 58.7496 84.3382 58.7523 84.3593 58.7605C84.3805 58.7686 84.3993 58.7819 84.4141 58.7991C84.4288 58.8163 84.4391 58.8369 84.4439 58.8591C84.4822 59.0342 84.5369 59.2914 84.5807 59.565C84.6355 59.9372 85.7738 59.4282 86.4141 57.376C86.4431 57.2877 86.5041 57.2134 86.5852 57.1679C86.6662 57.1223 86.7613 57.1087 86.8519 57.1297C89.7797 57.7974 95.2249 58.9193 95.898 59.1163C96.7682 59.3735 96.9926 60.2382 96.2319 61.5625C95.4712 62.8869 96.7135 64.3919 97.0473 64.9446C97.3811 65.4973 97.8299 65.7655 97.808 64.7421C97.7697 63.8063 98.5687 63.8227 98.8095 63.3466C99.5154 61.9456 98.4975 61.4914 98.9791 60.6103C99.6796 59.3516 102.503 59.9481 102.985 60.7909C103.236 61.2022 103.592 61.5397 104.016 61.7694C104.44 61.9991 104.917 62.1127 105.398 62.0988C106.323 62.0605 106.936 62.0441 107.292 62.3342C107.648 62.6242 108.146 62.7774 107.96 62.1153C107.204 59.472 104.375 58.6949 103.368 58.6128" fill="black"/>
<path d="M72.9682 42.7532C73.2908 41.8389 73.8704 41.037 74.6373 40.4438C75.7044 39.5034 76.9314 38.762 78.2601 38.2548C78.8074 38.0413 79.185 37.8334 78.9333 37.6418C78.0954 37.2474 77.437 36.5518 77.089 35.6936C76.7278 34.6593 76.7661 33.2364 78.7308 33.0886C80.0344 33.0434 81.3349 32.932 82.6273 32.7548C82.9459 32.7045 83.2534 32.5989 83.5357 32.4429C84.083 32.0926 83.9516 31.8956 83.4482 30.8449C83.1279 30.0461 83.048 29.1711 83.2183 28.3275C83.2897 28.1338 83.309 27.9247 83.2744 27.7211C83.2399 27.5176 83.1526 27.3266 83.0213 27.1673C81.4507 25.7663 81.1497 28.3658 79.1357 29.8543C74.2104 33.5155 64.617 33.2528 63.1558 33.0285C61.6946 32.8041 60.6931 32.9737 60.7697 34.0682C60.8354 35.0369 61.7165 35.1628 61.2678 36.4105C61.1443 36.6971 61.0788 37.0053 61.0751 37.3173C61.0713 37.6293 61.1293 37.939 61.2458 38.2285C61.3624 38.5179 61.535 38.7815 61.7539 39.0039C61.9727 39.2263 62.2334 39.4032 62.521 39.5244C64.0259 40.2961 62.5812 41.9597 64.5787 42.7204C65.8866 43.2184 65.8319 43.3552 66.111 44.0448C66.3901 44.7343 66.5215 45.889 68.4204 45.1721C70.5383 44.3731 70.3194 46.3214 71.7915 46.2229C73.2637 46.1244 72.4592 44.696 72.9572 42.7751" fill="#91C055"/>
<path d="M80.509 39.4698C80.509 39.4698 79.6225 39.5409 79.3543 39.913C79.2339 40.0827 79.2996 40.5479 80.0493 40.4603C82.9991 40.1538 83.9185 41.3961 85.117 43.1309C86.3155 44.8657 87.5796 46.1792 88.2637 46.1354C88.7234 46.108 88.5975 45.2269 87.9846 44.2638C86.915 42.5013 85.4332 41.0251 83.6667 39.9623C82.6799 39.5094 81.5873 39.3371 80.509 39.4643" fill="#d5272e"/>
<path d="M82.578 42.3374C81.8666 42.2334 82.4959 43.3006 82.8845 43.8533C83.273 44.4061 84.0282 45.8125 84.778 45.8125C85.5277 45.8125 84.0556 42.5563 82.5889 42.3374" fill="#d5272e"/>
<path d="M80.0058 42.5672C79.4586 42.7752 79.8088 43.7383 80.3342 44.51C80.8595 45.2816 81.4779 45.0189 81.4779 44.4388C81.4779 43.4811 80.6789 42.299 80.0058 42.5672Z" fill="#d5272e"/>
<path d="M89.4079 28.8036C89.4079 28.3165 89.3477 27.8568 89.9552 27.6105C90.5626 27.3643 90.8363 27.3096 90.9293 27.7583C90.9293 27.7583 91.1974 29.318 90.5079 30.21C89.8183 31.102 89.3805 29.7722 89.4134 28.8036" fill="white"/>
<path d="M83.2894 33.7508C83.1549 33.8141 83.0159 33.8672 82.8735 33.9095C82.2168 34.1173 81.5428 34.2657 80.8595 34.3528C80.1153 34.413 79.1685 34.3528 79.0262 34.9986C78.8675 35.7483 79.6173 36.2025 80.4765 35.9453C81.1879 35.7264 83.7929 34.0409 83.563 33.7563C83.5028 33.6742 83.4152 33.707 83.2894 33.7563" fill="#d5272e"/>
<path d="M87.3115 27.7418C86.9326 27.558 86.5391 27.406 86.1349 27.2876C85.2812 26.9811 84.9966 27.2438 84.8325 27.3916C84.5205 27.6762 84.433 28.5956 84.5533 29.5806C84.6902 30.6751 85.1006 31.3756 86.1513 31.2662C87.2021 31.1567 87.5031 29.4985 87.6289 28.6722C87.6837 28.2727 87.6618 27.906 87.3115 27.7473" fill="white"/>
<path d="M89.7086 33.198C89.13 33.086 88.5377 33.062 87.9519 33.1269C87.7221 33.1871 87.7932 33.3184 87.8698 33.4169C87.9666 33.5215 88.0858 33.6029 88.2185 33.6551C88.3511 33.7072 88.4939 33.7287 88.636 33.7179C89.4514 33.7179 89.9822 33.302 89.7305 33.198" fill="#FFCE04"/>
<path d="M90.7102 31.5946C90.3678 31.3241 89.9857 31.1081 89.5773 30.9544C88.6744 30.6096 89.0739 29.8981 88.5923 29.8598C88.1107 29.8215 87.8809 30.9543 87.8863 31.5946C87.8863 32.1419 88.4336 32.3225 89.1614 32.3225C90.0316 32.3225 90.4913 32.3225 90.7266 32.3608C90.9619 32.3991 91.3067 32.0653 90.7266 31.6056" fill="#FFCE04"/>
<path d="M67.3039 47.5363C68.4312 47.2682 69.3616 47.3722 69.4929 48.2587C69.6188 49.3532 67.6596 51.5423 65.6621 52.4453C63.9437 53.2388 60.8079 54.3552 58.5149 52.79C57.6229 52.1771 59.6532 50.9841 59.6094 50.1468C59.6094 49.7309 59.0622 49.4901 58.2413 50.0264C56.8309 50.9325 55.3375 51.7021 53.7811 52.3249C51.2145 53.4194 47.0444 54.2731 44.921 54.6452C41.0136 55.3238 37.5275 53.3865 37.5275 51.0169C37.5275 49.6761 38.4907 49.0522 41.3146 49.1617C42.4827 49.1406 43.6403 48.9375 44.7459 48.5597C46.0237 48.2726 47.3626 48.4675 48.5056 49.107C50.0105 49.9388 50.5304 48.795 50.5304 48.795C51.0229 47.4214 48.7792 47.1095 47.8434 46.7647C45.6543 45.9602 45.4354 44.0777 46.7488 43.0817C47.2961 42.6767 48.5001 41.8667 47.8434 41.2264C46.913 40.3016 44.5598 42.3648 43.4653 41.9215C42.6225 41.5767 43.5419 40.5643 45.1071 39.8747C45.6811 39.5721 46.3152 39.4009 46.9636 39.3734C47.6119 39.346 48.2582 39.463 48.8558 39.716C50.1692 40.3016 52.2871 41.4125 52.8125 40.7832C53.5732 39.8802 51.4388 38.5668 50.5085 38.1782C49.5782 37.7897 47.2906 36.4872 43.9414 34.7031C40.7235 32.9847 38.3375 34.8564 35.3659 36.8922C33.7843 37.9867 32.1863 39.2344 31.4037 38.8404C30.6211 38.4464 31.6609 37.3245 34.0689 35.4748C36.4768 33.625 39.1419 31.7096 41.9986 32.2569C44.5707 32.7494 48.5657 35.4036 50.7274 36.3613C52.3692 37.0837 54.1587 38.3971 54.7224 39.6449C55.0617 40.4165 56.0687 40.422 56.1234 39.716C56.1562 39.2727 56.1234 38.3807 57.3 38.4409C57.6639 38.4873 58.0001 38.6592 58.2509 38.9269C58.5016 39.1947 58.6511 39.5414 58.6736 39.9075C58.8706 41.0021 59.9432 40.9364 60.392 41.4672C60.8408 41.9981 60.5398 43.6289 61.9627 44.5593C63.4786 45.5498 63.495 44.5976 64.781 46.699C65.0612 47.0783 65.4528 47.3607 65.9011 47.5069C66.3494 47.653 66.8321 47.6557 67.282 47.5145" fill="#d5272e"/>
<path d="M40.6578 35.8961C40.0832 35.5294 39.016 36.011 38.321 36.4433C37.0787 37.2259 35.5847 38.3478 36.2523 38.9662C37.0897 39.7214 39.2185 38.1617 40.3787 37.2205C40.7891 36.8866 41.205 36.2409 40.6578 35.8906" fill="#d5272e"/>
<path d="M44.385 37.2478C44.1286 37.0916 43.8352 37.0067 43.535 37.0019C43.2348 36.9971 42.9388 37.0726 42.6775 37.2205C41.7903 37.6552 40.9775 38.2278 40.2696 38.917C39.9631 39.3165 39.7825 40.0115 40.7402 40.2906C41.6979 40.5697 43.0497 39.4916 43.6079 39.1359C44.1661 38.7802 45.1675 37.8827 44.385 37.2478Z" fill="#d5272e"/>
<path d="M77.7457 41.6861C77.0725 41.7244 76.788 43.7164 77.7949 43.7164C78.5994 43.7164 78.3859 41.6478 77.7457 41.6861Z" fill="#d5272e"/>
<path d="M32.9032 20.0858C31.3489 17.5356 26.2649 8.97102 18.2476 4.53275C10.2302 0.0944824 7.16011 1.79646 6.20788 2.19048C5.10689 2.69084 4.16411 3.48339 3.48197 4.48199C2.79983 5.48059 2.40444 6.64705 2.33875 7.85461C1.93925 12.074 3.22529 11.6252 3.8218 10.8919C4.41831 10.1586 5.90688 8.06257 8.87302 9.00386C11.8392 9.94514 15.0844 12.1178 18.7948 16.556C22.5052 20.9943 27.3594 28.5246 32.3942 29.5261C37.429 30.5275 34.441 22.6415 32.8868 20.0858" fill="#d5272e"/>
<path d="M22.1658 4.99224C24.6778 6.84198 31.0095 12.0081 35.0264 19.719C36.7229 22.9642 37.6095 27.5284 40.499 28.1413C43.7443 28.8308 44.3955 24.7045 42.6881 19.5658C40.9806 14.427 38.6821 9.41957 31.9344 5.18926C27.3155 2.28878 23.9663 2.93455 22.3136 3.62957C22.185 3.68374 22.0731 3.77108 21.9894 3.88265C21.9056 3.99423 21.853 4.12604 21.8368 4.26462C21.8207 4.4032 21.8416 4.54359 21.8975 4.67142C21.9534 4.79926 22.0422 4.90997 22.1549 4.99224" fill="#91C055"/>
<path d="M45.5285 27.3808C45.4081 29.0226 47.2031 29.9201 48.0186 28.229C48.834 26.538 50.8096 22.9754 49.0201 16.4684C47.5698 11.1929 43.1042 10.1257 41.1122 10.1969C41.0311 10.199 40.9522 10.2231 40.8837 10.2665C40.8152 10.3099 40.7598 10.3711 40.7233 10.4435C40.6868 10.5159 40.6706 10.5969 40.6765 10.6777C40.6823 10.7586 40.71 10.8364 40.7565 10.9028C44.116 15.7212 45.7933 21.5128 45.5285 27.3808Z" fill="#d5272e"/>
<path d="M90.9511 26.3355C90.0591 26.1822 89.6267 26.7405 89.3093 26.423C88.9919 26.1056 89.3093 25.6733 89.8128 25.6733C90.3163 25.6733 90.8471 24.8032 91.3013 25.126C91.7556 25.4489 91.5969 26.4504 90.9566 26.341" fill="#d5272e"/>
<path d="M87.766 25.7499C88.4173 25.7773 88.5595 26.029 88.5158 26.2588C88.4976 26.3336 88.4618 26.4029 88.4113 26.461C88.3608 26.5191 88.2972 26.5642 88.2257 26.5927C87.8645 26.7459 87.2242 26.7021 86.0367 26.1056C84.6467 25.3942 84.3566 25.8703 83.5959 25.9633C82.8352 26.0564 82.7531 24.6718 84.2143 24.3489C85.6755 24.026 86.4033 25.6897 87.7551 25.7499" fill="#d5272e"/>
<path d="M83.9239 55.3402C83.2891 58.7441 79.5732 58.2954 78.3145 58.1093C77.0558 57.9232 77.2802 57.0586 77.729 56.9382C78.5444 56.7138 78.6757 56.3034 78.5991 56.0954C78.4842 55.778 78.1668 55.7287 77.729 55.8655C75.54 56.5223 70.7733 53.9392 72.3385 51.4163C73.0061 50.3218 75.8683 49.8129 79.9509 50.2945C81.631 50.4969 84.5588 51.9362 83.9239 55.3402Z" fill="#d5272e"/>
<path d="M90.579 28.8802C90.579 29.2086 90.382 29.4658 90.1685 29.4603C89.9551 29.4549 89.7855 29.1812 89.8019 28.8529C89.8183 28.5245 89.9989 28.2673 90.2123 28.2728C90.4258 28.2783 90.5899 28.5574 90.579 28.8802Z" fill="black"/>
<path d="M86.6332 29.2196C86.5785 29.6355 86.3104 29.9474 86.0367 29.9091C85.7631 29.8708 85.5825 29.5096 85.6372 29.0882C85.6919 28.6669 85.9601 28.3659 86.2392 28.3987C86.5183 28.4315 86.688 28.7982 86.6332 29.2196Z" fill="black"/>
<path d="M78.7309 22.2311C78.3643 22.357 78.6817 23.0301 78.9334 23.3585C79.1851 23.6868 79.519 23.9824 79.7434 23.8565C79.9678 23.7306 79.8419 23.1998 79.6066 22.866C79.3712 22.5321 78.9991 22.1381 78.7309 22.2311Z" fill="#d5272e"/>
<path d="M84.154 18.7614C84.2251 19.128 84.3401 19.8942 84.0445 19.9489C83.749 20.0037 83.6013 19.5002 83.3221 18.9091C83.0569 18.445 82.6925 18.0451 82.255 17.738C81.9266 17.448 81.757 16.9992 82.1565 16.7912C82.421 16.7188 82.7018 16.7329 82.9578 16.8313C83.2137 16.9298 83.4316 17.1075 83.5794 17.3385C83.8694 17.7708 84.0652 18.2594 84.154 18.7723" fill="#d5272e"/>
<path d="M88.1761 12.5172C87.4756 12.851 88.0776 13.9291 88.4497 14.4053C88.8219 14.8814 89.5443 15.7187 89.993 16.3316C91.985 19.0022 91.3502 20.2828 91.9796 20.2445C92.4666 20.2171 92.7293 17.6614 91.788 15.6913C90.8468 13.7212 89.3089 11.9754 88.1761 12.5172Z" fill="#d5272e"/>
</svg>