<svg width="1213" height="222" viewBox="0 0 1213 222" fill="none" xmlns="http://www.w3.org/2000/svg">
<g clip-path="url(#clip0_501_3683)">
<path d="M1200.8 110.59L1102.08 11.86L1003.34 110.59L904.62 11.86L805.89 110.59L707.16 11.86L608.43 110.59" stroke="#FFCD00" stroke-width="23.72" stroke-linecap="round" stroke-linejoin="round"/>
<path d="M1200.8 209.32L1102.08 110.59L1003.34 209.32L904.62 110.59L805.89 209.32L707.16 110.59L608.43 209.32" stroke="#FFCD00" stroke-width="23.72" stroke-linecap="round" stroke-linejoin="round"/>
<path d="M604.23 110.59L505.51 11.86L406.77 110.59L308.05 11.86L209.32 110.59L110.59 11.86L11.8599 110.59" stroke="#FFCD00" stroke-width="23.72" stroke-linecap="round" stroke-linejoin="round"/>
<path d="M604.23 209.32L505.51 110.59L406.77 209.32L308.05 110.59L209.32 209.32L110.59 110.59L11.8599 209.32" stroke="#FFCD00" stroke-width="23.72" stroke-linecap="round" stroke-linejoin="round"/>
</g>
<defs>
<clipPath id="clip0_501_3683">
<rect width="1212.66" height="221.18" fill="white"/>
</clipPath>
</defs>
</svg>
