<svg width="15" height="10" viewBox="0 0 15 10" fill="none" xmlns="http://www.w3.org/2000/svg">
<path d="M14.3328 3.29985C14.0927 4.53512 13.4081 5.78689 12.5203 6.61439C11.3544 7.70044 9.66909 8.36448 7.47856 8.36448C5.28803 8.36448 3.6027 7.69987 2.43677 6.61439C1.04605 5.3199 0.464216 3.47868 0.577744 1.6107C0.801395 1.21204 1.56885 0.87945 2.67802 0.656773C3.9081 0.409037 5.60421 0.258118 7.47515 0.258118C7.80382 0.258118 10.5841 0.341265 12.4835 0.722835C13.4257 0.911912 14.1699 1.19382 14.3799 1.61127C14.5082 1.86584 14.4322 2.32372 14.4197 2.58911C14.4075 2.82778 14.3784 3.06529 14.3328 3.29985V3.29985ZM3.72815 1.57994C3.7743 1.57994 3.8194 1.59367 3.85777 1.61939C3.89614 1.64511 3.92603 1.68167 3.94369 1.72444C3.96135 1.76721 3.96597 1.81427 3.95697 1.85968C3.94797 1.90508 3.92575 1.94679 3.89312 1.97952C3.8605 2.01226 3.81892 2.03455 3.77366 2.04358C3.72841 2.05261 3.68151 2.04798 3.63888 2.03026C3.59625 2.01255 3.55981 1.98254 3.53418 1.94405C3.50854 1.90556 3.49485 1.86031 3.49485 1.81401C3.49485 1.78327 3.50089 1.75284 3.51261 1.72444C3.52434 1.69604 3.54152 1.67024 3.56318 1.6485C3.58485 1.62677 3.61057 1.60952 3.63888 1.59776C3.66718 1.586 3.69752 1.57994 3.72815 1.57994V1.57994ZM11.2239 1.21774C11.27 1.21774 11.3151 1.23146 11.3535 1.25718C11.3918 1.2829 11.4217 1.31946 11.4394 1.36223C11.4571 1.405 11.4617 1.45206 11.4527 1.49747C11.4437 1.54287 11.4215 1.58458 11.3888 1.61731C11.3562 1.65005 11.3146 1.67234 11.2694 1.68137C11.2241 1.69041 11.1772 1.68577 11.1346 1.66805C11.092 1.65034 11.0555 1.62034 11.0299 1.58184C11.0042 1.54335 10.9906 1.4981 10.9906 1.4518C10.9906 1.42107 10.9966 1.39063 11.0083 1.36223C11.02 1.33383 11.0372 1.30803 11.0589 1.28629C11.0806 1.26456 11.1063 1.24732 11.1346 1.23555C11.1629 1.22379 11.1932 1.21774 11.2239 1.21774V1.21774ZM6.42899 1.23027C6.47511 1.23038 6.52015 1.2442 6.55845 1.26999C6.59674 1.29578 6.62656 1.33237 6.64413 1.37515C6.6617 1.41793 6.66624 1.46498 6.65717 1.51035C6.64811 1.55571 6.62584 1.59737 6.59319 1.63004C6.56054 1.66272 6.51897 1.68496 6.47373 1.69394C6.42849 1.70293 6.38161 1.69826 6.33901 1.68053C6.29641 1.6628 6.26002 1.63279 6.23441 1.59432C6.2088 1.55584 6.19512 1.5106 6.19512 1.46433C6.19474 1.43331 6.20052 1.40252 6.21211 1.37375C6.2237 1.34499 6.24088 1.31882 6.26264 1.29678C6.2844 1.27473 6.31032 1.25725 6.33887 1.24534C6.36743 1.23343 6.39807 1.22734 6.42899 1.22742V1.23027ZM6.86778 2.07712C6.91392 2.07712 6.95903 2.09085 6.9974 2.11657C7.03576 2.14229 7.06566 2.17885 7.08332 2.22162C7.10098 2.26439 7.1056 2.31145 7.0966 2.35685C7.08759 2.40226 7.06538 2.44397 7.03275 2.4767C7.00012 2.50944 6.95855 2.53173 6.91329 2.54076C6.86803 2.54979 6.82112 2.54516 6.77849 2.52744C6.73586 2.50972 6.69942 2.47972 6.67379 2.44123C6.64815 2.40274 6.63447 2.35748 6.63447 2.31119C6.63379 2.28002 6.63932 2.24903 6.65074 2.22004C6.66216 2.19105 6.67925 2.16464 6.70098 2.14236C6.72271 2.12008 6.74865 2.10237 6.7773 2.09029C6.80594 2.07821 6.83671 2.07199 6.86778 2.072V2.07712ZM8.7319 2.07712C8.77805 2.07712 8.82316 2.09085 8.86152 2.11657C8.89989 2.14229 8.9298 2.17885 8.94746 2.22162C8.96512 2.26439 8.96974 2.31145 8.96074 2.35685C8.95173 2.40226 8.9295 2.44397 8.89688 2.4767C8.86425 2.50944 8.82269 2.53173 8.77743 2.54076C8.73217 2.54979 8.68526 2.54516 8.64263 2.52744C8.6 2.50972 8.56356 2.47972 8.53793 2.44123C8.51229 2.40274 8.49861 2.35748 8.49861 2.31119C8.49793 2.28002 8.50346 2.24903 8.51488 2.22004C8.5263 2.19105 8.54337 2.16464 8.5651 2.14236C8.58684 2.12008 8.61279 2.10237 8.64144 2.09029C8.67008 2.07821 8.70083 2.07199 8.7319 2.072V2.07712ZM10.1005 8.56438V9.03081C10.0997 9.20965 10.0283 9.38089 9.9019 9.50697C9.77548 9.63306 9.6044 9.7037 9.42614 9.70339H5.53155C5.35359 9.70294 5.18304 9.63182 5.0572 9.50557C4.93137 9.37931 4.86048 9.20821 4.86003 9.02967V8.56438C6.57336 9.04126 8.38375 9.04126 10.0971 8.56438H10.1005ZM12.1786 2.56918C13.2702 2.34992 13.9451 2.09592 13.9451 1.85957C13.9451 1.61013 13.2776 1.39258 12.3898 1.21375C10.5308 0.839584 7.80212 0.758145 7.47913 0.758145C5.64111 0.758145 3.97905 0.907925 2.77963 1.14883C1.68805 1.36809 1.01312 1.62209 1.01312 1.859C1.01312 2.09592 1.68805 2.34878 2.77963 2.56861C5.36977 3.09028 9.59133 3.09028 12.1792 2.56861L12.1786 2.56918Z" fill="#FFFFFF"/>
</svg>
