<svg width="14" height="12" viewBox="0 0 14 12" fill="none" xmlns="http://www.w3.org/2000/svg">
<path d="M12.2812 6.125H1.71875C1.0332 6.125 0.5 6.68359 0.5 7.34375C0.5 8.0293 1.0332 8.5625 1.71875 8.5625H12.2812C12.9414 8.5625 13.5 8.0293 13.5 7.34375C13.5 6.68359 12.9414 6.125 12.2812 6.125ZM12.6875 9.375H1.3125C1.08398 9.375 0.90625 9.57812 0.90625 9.78125V10.1875C0.90625 11.1016 1.61719 11.8125 2.53125 11.8125H11.4688C12.3574 11.8125 13.0938 11.1016 13.0938 10.1875V9.78125C13.0938 9.57812 12.8906 9.375 12.6875 9.375ZM1.97266 5.3125H12.002C12.8652 5.3125 13.373 4.2207 12.8906 3.4082C11.875 1.75781 9.61523 0.462891 7 0.4375C4.35938 0.462891 2.125 1.75781 1.08398 3.4082C0.601562 4.2207 1.10938 5.3125 1.97266 5.3125ZM10.25 2.46875C10.4531 2.46875 10.6562 2.67188 10.6562 2.875C10.6562 3.10352 10.4531 3.28125 10.25 3.28125C10.0215 3.28125 9.84375 3.10352 9.84375 2.875C9.84375 2.67188 10.0215 2.46875 10.25 2.46875ZM7 1.65625C7.20312 1.65625 7.40625 1.85938 7.40625 2.0625C7.40625 2.29102 7.20312 2.46875 7 2.46875C6.77148 2.46875 6.59375 2.29102 6.59375 2.0625C6.59375 1.85938 6.77148 1.65625 7 1.65625ZM3.75 2.46875C3.95312 2.46875 4.15625 2.67188 4.15625 2.875C4.15625 3.10352 3.95312 3.28125 3.75 3.28125C3.52148 3.28125 3.34375 3.10352 3.34375 2.875C3.34375 2.67188 3.52148 2.46875 3.75 2.46875Z" fill="#FFFFFF"/>
</svg>
