<svg width="8" height="14" viewBox="0 0 8 14" fill="none" xmlns="http://www.w3.org/2000/svg">
<path d="M4.16771 0.0284649C3.4195 0.0517301 2.69656 0.305534 2.09712 0.755392C1.49769 1.20525 1.05083 1.82935 0.817252 2.54289C0.583678 3.25643 0.574718 4.02482 0.791587 4.74365C1.00846 5.46248 1.44064 6.0969 2.02941 6.56071C2.16201 6.66198 2.266 6.79619 2.33111 6.95009C2.39621 7.104 2.42018 7.27228 2.40065 7.43832C2.36793 7.69021 2.38587 7.94613 2.45342 8.19094C2.52097 8.43576 2.63675 8.6645 2.79392 8.86366C2.95109 9.06281 3.14646 9.22833 3.36848 9.35043C3.5905 9.47253 3.83466 9.54874 4.08654 9.57454C4.35045 9.60181 4.61712 9.57318 4.8693 9.49052C5.12149 9.40785 5.35356 9.27299 5.55051 9.09466C5.74747 8.91633 5.90492 8.6985 6.01266 8.45527C6.12041 8.21203 6.17607 7.94881 6.17602 7.68264C6.17589 7.60938 6.17172 7.53618 6.16353 7.46338C6.14197 7.29494 6.16402 7.12377 6.22755 6.96637C6.29108 6.80896 6.39396 6.67063 6.52626 6.5647C7.13179 6.08988 7.57223 5.43518 7.78464 4.69415C7.99705 3.95312 7.97055 3.16369 7.70894 2.43868C7.44732 1.71366 6.96398 1.09017 6.32798 0.657296C5.69198 0.224425 4.93587 0.00433039 4.16771 0.0284649Z" fill="#FFFFFF"/>
<path d="M5.24283 11.9511C5.21831 11.9516 5.19393 11.9473 5.17109 11.9383C5.14826 11.9293 5.12743 11.9159 5.1098 11.8988C5.09217 11.8817 5.0781 11.8613 5.06839 11.8387C5.05868 11.8161 5.05353 11.7918 5.05323 11.7672V9.95386C4.80302 10.0866 4.52427 10.156 4.24122 10.156C3.95818 10.156 3.67942 10.0866 3.42921 9.95386V11.7672C3.42892 11.7918 3.42377 11.8161 3.41406 11.8387C3.40435 11.8613 3.39027 11.8817 3.37264 11.8988C3.35501 11.9159 3.33418 11.9293 3.31135 11.9383C3.28852 11.9473 3.26414 11.9516 3.23962 11.9511C2.6487 11.9511 2.16962 12.4067 2.16962 12.966C2.16962 13.5252 2.64473 13.9814 3.23564 13.9814C3.51816 13.983 3.79033 13.8748 3.99515 13.6796C4.06103 13.617 4.14827 13.5822 4.23895 13.5822C4.32964 13.5822 4.41688 13.617 4.48275 13.6796C4.68774 13.8749 4.96012 13.9831 5.24283 13.9814C5.83374 13.9814 6.31226 13.5258 6.31226 12.966C6.31226 12.4062 5.83374 11.9511 5.24283 11.9511Z" fill="#FFFFFF"/>
</svg>
