<svg width="9" height="14" viewBox="0 0 9 14" fill="none" xmlns="http://www.w3.org/2000/svg">
<path d="M6.40412 2.28707C6.60131 2.31286 6.79665 2.35108 6.98897 2.4015C7.35732 2.52544 7.66749 2.77913 7.86116 3.11486C8.05483 3.45058 8.11864 3.84521 8.0406 4.22451C7.86942 5.05631 7.302 5.54087 6.4485 5.5456C4.8292 5.55455 3.21042 5.55455 1.59217 5.5456C0.288542 5.53929 -0.287593 4.26002 0.138763 3.25697C0.398697 2.64536 0.88845 2.35415 1.54225 2.31548L1.73324 2.30522C1.59931 1.6431 1.7261 1.052 2.21348 0.569018C2.42187 0.370543 2.66977 0.217835 2.94115 0.120773C3.21254 0.0237099 3.50136 -0.0155473 3.78893 0.00554056C3.81825 0.175215 3.84678 0.348045 3.87848 0.520087C3.88828 0.612666 3.93218 0.698347 4.0017 0.760582C4.07122 0.822816 4.16143 0.857192 4.25491 0.857069C4.55685 0.877588 4.85878 0.88469 5.16072 0.901263C5.73131 0.932041 6.19095 1.25797 6.33518 1.7591C6.37279 1.93289 6.39585 2.10948 6.40412 2.28707Z" fill="#FFFFFF"/>
<path d="M1.15076 6.50049H6.91923C6.76549 6.87298 6.61809 7.23522 6.46752 7.59587L4.34604 12.6908C4.33574 12.7145 4.32465 12.7382 4.31514 12.7627C4.26283 12.8984 4.18042 13.0412 4.02667 13.0065C3.96765 12.9863 3.91338 12.9543 3.86719 12.9126C3.82099 12.8708 3.78385 12.82 3.75802 12.7634C3.38635 11.904 3.03211 11.0367 2.67232 10.1726C2.19155 9.01877 1.71078 7.86472 1.23001 6.71041C1.20306 6.6457 1.18008 6.57862 1.15076 6.50049Z" fill="#FFFFFF"/>
</svg>
