<svg width="11" height="13" viewBox="0 0 11 13" fill="none" xmlns="http://www.w3.org/2000/svg">
<path d="M9.54978 6.0118L8.27201 6.65249L6.992 6.0118C6.94202 5.98678 6.88693 5.97375 6.83107 5.97375C6.77522 5.97375 6.72013 5.98678 6.67015 6.0118L5.39238 6.65249L4.11406 6.0118C4.06408 5.98678 4.00899 5.97375 3.95314 5.97375C3.89728 5.97375 3.84219 5.98678 3.79221 6.0118L2.51447 6.65249L1.23671 6.0118C1.18185 5.98434 1.12092 5.9714 1.05968 5.9742C0.998443 5.977 0.938948 5.99545 0.886811 6.02779C0.834673 6.06014 0.79164 6.10531 0.76178 6.15902C0.731921 6.21273 0.716219 6.27321 0.716187 6.33471C0.716187 9.71758 2.81644 12.4689 5.39238 12.4689C7.96832 12.4689 10.068 9.71758 10.068 6.33471C10.0678 6.27352 10.0521 6.21339 10.0223 6.15996C9.99261 6.10654 9.94982 6.06157 9.89801 6.02929C9.8462 5.99701 9.78705 5.97847 9.72614 5.97541C9.66522 5.97235 9.60454 5.98487 9.54978 6.0118V6.0118Z" fill="#FFFFFF"/>
<path d="M2.51677 5.84489L3.47267 5.36537C3.62248 5.29019 3.78767 5.25105 3.95517 5.25105C4.12267 5.25105 4.28786 5.29019 4.43766 5.36537L5.39414 5.84489L6.35004 5.36537C6.49985 5.29019 6.66504 5.25105 6.83254 5.25105C7.00004 5.25105 7.16523 5.29019 7.31503 5.36537L8.27093 5.84489L8.43499 5.76288C8.25221 5.11592 7.95193 4.47637 7.52676 4.02076C7.71249 3.72152 7.83409 3.38676 7.88381 3.03779H8.2698C8.31706 3.03779 8.36386 3.02845 8.40752 3.01031C8.45118 2.99216 8.49087 2.96557 8.52429 2.93204C8.55771 2.89851 8.5842 2.85871 8.60229 2.8149C8.62037 2.77109 8.6297 2.72414 8.6297 2.67672C8.6297 2.62931 8.62037 2.58236 8.60229 2.53855C8.5842 2.49474 8.55771 2.45494 8.52429 2.42141C8.49087 2.38788 8.45118 2.36129 8.40752 2.34314C8.36386 2.325 8.31706 2.31566 8.2698 2.31566H7.87245C7.81818 1.94454 7.68207 1.59024 7.47402 1.27859C7.26597 0.966944 6.99124 0.705796 6.66984 0.514184C6.34844 0.322573 5.98848 0.205325 5.61618 0.170987C5.24389 0.13665 4.86863 0.186087 4.51779 0.315696C4.16696 0.445306 3.84937 0.651821 3.58817 0.92019C3.32697 1.18856 3.12877 1.51202 3.00797 1.86699C2.88718 2.22197 2.84685 2.59951 2.88993 2.9721C2.933 3.3447 3.0584 3.70295 3.25698 4.02076C2.83239 4.47637 2.5321 5.11592 2.34875 5.76288L2.51677 5.84489ZM6.1139 2.31395C6.18507 2.31395 6.25466 2.33513 6.31385 2.3748C6.37303 2.41447 6.41915 2.47087 6.44639 2.53684C6.47363 2.60282 6.48076 2.67542 6.46687 2.74546C6.45298 2.8155 6.41872 2.87983 6.36839 2.93033C6.31806 2.98083 6.25394 3.01521 6.18413 3.02915C6.11432 3.04308 6.04196 3.03593 5.9762 3.0086C5.91044 2.98127 5.85421 2.93499 5.81466 2.87562C5.77512 2.81624 5.75402 2.74643 5.75402 2.67502C5.75447 2.57955 5.79259 2.48815 5.86004 2.42081C5.92748 2.35346 6.01874 2.31566 6.1139 2.31566V2.31395Z" fill="#FFFFFF"/>
</svg>
