<svg width="13" height="14" viewBox="0 0 13 14" fill="none" xmlns="http://www.w3.org/2000/svg">
<path d="M11.7403 0.860686L11.7319 0.863963C8.64167 2.0625 5.55131 3.26786 2.46215 4.47276C2.18189 4.58014 1.92549 4.74136 1.70796 4.947C1.49043 5.15263 1.31614 5.39854 1.19531 5.67031C0.935021 6.25286 0.803284 6.88207 0.808932 7.51576C0.775571 9.50055 1.27807 11.3809 1.90119 13.2373C1.91549 13.2828 1.93284 13.3273 1.95314 13.3705C4.8937 12.2738 7.36913 8.82182 8.10248 5.1327C7.86277 5.14018 7.623 5.13488 7.38419 5.11682C7.34679 5.11344 7.31163 5.09832 7.28383 5.07368C7.25604 5.04904 7.23707 5.01616 7.22972 4.97987C7.22237 4.94358 7.227 4.90578 7.24296 4.872C7.25891 4.83822 7.28534 4.81023 7.31838 4.79213C7.34594 4.774 7.37704 4.76187 7.40959 4.75656C7.87909 4.66985 8.37908 4.68261 8.81932 4.52447C10.4232 3.94643 11.4468 2.75276 12.163 1.27433C12.163 1.27433 12.1598 1.26607 12.1668 1.25926C12.1939 1.18665 12.1938 1.10719 12.1666 1.03529C12.1507 0.995957 12.127 0.960209 12.097 0.930111C12.0669 0.900012 12.031 0.876159 11.9914 0.859927C11.9518 0.843695 11.9092 0.835405 11.8661 0.835535C11.823 0.835665 11.7803 0.844213 11.7403 0.860686Z" fill="#FFFFFF"/>
</svg>
