<svg width="16" height="13" viewBox="0 0 16 13" fill="none" xmlns="http://www.w3.org/2000/svg">
<path d="M14.5873 9.77789H0.907236C0.794325 9.77789 0.686044 9.82289 0.606204 9.903C0.526364 9.9831 0.481506 10.0917 0.481506 10.205C0.481506 10.6959 0.675872 11.1667 1.02184 11.5138C1.36782 11.8609 1.83705 12.0559 2.32633 12.0559H13.1682C13.6575 12.0559 14.1268 11.8609 14.4727 11.5138C14.8187 11.1667 15.0131 10.6959 15.0131 10.205C15.0131 10.0917 14.9682 9.9831 14.8884 9.903C14.8085 9.82289 14.7002 9.77789 14.5873 9.77789Z" fill="#FFFFFF"/>
<path d="M8.88264 2.17492V1.94712C8.88264 1.64503 8.76303 1.35532 8.55012 1.14171C8.33721 0.928108 8.04845 0.808105 7.74735 0.808105C7.44625 0.808105 7.15749 0.928108 6.94458 1.14171C6.73167 1.35532 6.61206 1.64503 6.61206 1.94712V2.17492C7.36466 2.06102 8.13004 2.06102 8.88264 2.17492V2.17492Z" fill="#FFFFFF"/>
<path d="M12.4633 4.73317C11.5563 3.82291 10.4068 3.19444 9.1527 2.92312C7.89861 2.65179 6.59313 2.74913 5.39278 3.20346C4.19244 3.65779 3.14818 4.44982 2.38521 5.4846C1.62224 6.51938 1.17294 7.75299 1.09119 9.03751H14.4035C14.3045 7.41264 13.614 5.88088 12.4633 4.73317V4.73317Z" fill="#FFFFFF"/>
</svg>
