<svg width="11" height="15" viewBox="0 0 11 15" fill="none" xmlns="http://www.w3.org/2000/svg">
<path d="M10.1517 8.7072C10.2247 8.52 10.2582 8.3196 10.2498 8.11873C10.2415 7.91787 10.1916 7.72094 10.1033 7.54048C10.015 7.36002 9.89018 7.19997 9.73688 7.07051C9.58357 6.94106 9.40508 6.84503 9.21278 6.78854C8.97494 6.72076 8.66444 6.82612 8.42376 6.86884L7.47296 7.03969L5.62302 7.36772C5.57234 7.37681 5.52013 7.371 5.47267 7.35099C5.42522 7.33098 5.38454 7.29762 5.35556 7.25494C5.32658 7.21225 5.31053 7.16207 5.30934 7.11044C5.30814 7.0588 5.32186 7.00793 5.34884 6.96394L6.75376 4.66484C6.98131 4.29399 7.12368 3.87694 7.17055 3.44399C7.21742 3.01104 7.16761 2.57306 7.02472 2.16183C6.88184 1.75061 6.64947 1.37647 6.34449 1.06658C6.03951 0.756688 5.66957 0.518828 5.26154 0.370267C4.85351 0.221706 4.41762 0.166174 3.98553 0.207702C3.55344 0.24923 3.13598 0.386776 2.76348 0.610354C2.39098 0.833931 2.07278 1.13793 1.83199 1.50027C1.59119 1.86261 1.43385 2.27421 1.37138 2.70517L0.366651 9.59222C0.328647 9.8473 0.355372 10.1079 0.444363 10.3499C0.533353 10.5918 0.681731 10.8074 0.875769 10.9766C1.06981 11.1457 1.30324 11.2631 1.55447 11.3178C1.80571 11.3725 2.06662 11.3627 2.31309 11.2894L6.58574 10.0336L6.64931 10.717L6.82756 12.63C6.85364 12.9101 6.94854 13.1793 7.10377 13.4135C7.259 13.6478 7.46972 13.8398 7.71705 13.9723C7.75012 13.99 7.78652 14.0005 7.8239 14.0031C7.86127 14.0058 7.89879 14.0005 7.934 13.9877C7.96922 13.9748 8.00135 13.9547 8.02832 13.9286C8.05529 13.9025 8.0765 13.871 8.09056 13.8362L10.1517 8.7072Z" fill="#FFFFFF"/>
</svg>
