<svg width="1030" height="906" viewBox="0 0 1030 906" fill="none" xmlns="http://www.w3.org/2000/svg">
<path d="M611.25 36.3595C655.342 119.083 697.377 205.266 758.323 268.093C788.04 298.631 821.583 323.321 858.286 338.518C894.307 353.477 934.684 348.051 968.237 368.567C1009.17 393.493 1031.87 445.422 1029.51 507.918C1022.24 699.415 845.71 827.084 726.393 877.513C519.902 964.726 307.579 834.885 164.073 674.439C57.1312 554.918 -16.7912 379.011 4.48133 176.25C22.4464 5.09009 106.915 -147.253 232.975 -212.294C342.422 -268.816 449.107 -199.713 521.639 -108.139C555.36 -65.6086 583.777 -15.1478 611.25 36.3595Z" fill="#FFCE04"/>
</svg>
